<svg width="27" height="27" viewBox="0 0 27 27" fill="none" xmlns="http://www.w3.org/2000/svg">
<path d="M24.999 13.055C24.999 15.3282 24.3249 17.5502 23.062 19.4403C21.7991 21.3303 20.0041 22.8034 17.904 23.6733C15.8038 24.5431 13.4929 24.7706 11.2635 24.3271C9.03401 23.8836 6.98616 22.7889 5.37887 21.1814C3.77159 19.574 2.67707 17.5261 2.23372 15.2966C1.79037 13.0671 2.01811 10.7562 2.88815 8.65614C3.75818 6.55608 5.23142 4.76119 7.12156 3.49845C9.01171 2.2357 11.2339 1.56181 13.507 1.56201C16.555 1.56228 19.478 2.77326 21.6331 4.92859C23.7883 7.08391 24.999 10.0071 24.999 13.055V13.055Z" stroke="#9AC52F" stroke-width="3" stroke-linecap="round" stroke-linejoin="round"/>
<path d="M13.507 17.652L18.107 13.052L13.507 8.45801" stroke="#9AC52F" stroke-width="3" stroke-linecap="round" stroke-linejoin="round"/>
<path d="M8.91003 13.0549H18.104" stroke="#9AC52F" stroke-width="3" stroke-linecap="round" stroke-linejoin="round"/>
</svg>
