<svg width="229" height="223" viewBox="0 0 229 223" fill="none" xmlns="http://www.w3.org/2000/svg">
<path d="M5.9 5.81C5.67 6.61499 5.44 7.42 5.325 8.22499C4.98 10.065 4.865 12.02 4.635 13.86C4.52 14.435 4.405 15.125 4.405 15.7C4.405 17.08 4.405 18.46 4.405 19.725C4.29 22.6 4.29 25.475 4.175 28.35C4.06 30.88 3.945 33.41 3.6 35.94C3.255 38.815 3.025 41.575 3.025 44.335C3.025 45.485 3.14 46.635 2.68 47.785C2.565 48.13 2.68 48.475 2.565 48.82C2.45 50.545 2.335 52.155 2.22 53.765C2.22 55.03 1.99 56.41 2.22 57.675C2.45 59.4 2.335 61.125 2.22 62.85C2.105 64.575 2.22 66.185 2.335 67.91C2.45 68.945 2.45 69.98 2.45 71.015C2.565 72.165 2.45 73.2 2.565 74.35C2.565 75.27 3.025 76.19 2.565 77.11C2.565 77.34 2.565 77.57 2.68 77.8C2.91 79.41 3.255 81.02 3.485 82.745C3.6 82.975 3.715 83.205 3.715 83.435C4.06 84.125 4.29 84.815 4.635 85.505C5.67 85.735 5.785 86.885 6.13 87.575C5.9 88.035 5.785 88.38 5.555 88.84C5.67 88.84 5.785 88.955 5.785 88.955C6.245 88.61 6.82 88.15 7.395 88.61C8.2 89.07 9.005 89.07 9.81 89.07C11.42 88.955 12.915 88.955 14.525 88.955C14.755 88.955 14.985 88.955 15.215 88.955C17.4 88.84 19.47 88.725 21.54 88.84C22.805 88.955 23.84 88.725 24.875 88.035C26.83 86.885 28.67 85.62 30.625 84.355C31.315 83.78 31.89 83.205 32.58 82.63C33.385 81.94 33.5 81.365 33.04 80.56C32.695 79.755 32.35 78.95 31.89 78.26C31.66 77.8 31.315 77.34 30.855 77.11C29.935 76.305 28.785 75.845 27.635 75.615C24.99 75.04 22.23 74.81 19.47 74.925C18.895 74.925 18.435 74.925 17.86 74.81C16.94 74.58 16.825 74.58 16.825 73.545C16.825 72.51 16.825 71.475 16.825 70.44C16.825 63.655 16.825 56.87 16.825 50.085C16.825 48.935 16.825 47.67 16.94 46.52C16.94 44.795 16.94 43.07 17.055 41.345C17.055 39.39 17.17 37.32 17.285 35.365C17.285 34.675 17.285 34.1 17.4 33.525C17.515 32.03 17.63 30.535 17.745 29.04C17.745 27.775 17.63 26.395 17.745 25.13C17.745 24.21 17.86 23.405 17.86 22.6C17.975 20.07 18.09 17.54 18.205 15.01C18.32 14.205 18.32 13.515 18.435 12.71C18.435 11.56 18.09 10.525 18.09 9.49C17.86 6.73 16.365 4.315 15.675 1.78499C15.675 1.78499 15.56 1.78499 15.56 1.67C14.64 1.9 13.72 1.67 13.03 1.095C12.455 0.519996 11.88 0.634995 11.42 0.864999C10.845 1.095 10.845 1.67 10.96 2.24499C10.96 2.475 10.845 2.705 10.73 2.935C10.155 2.81999 9.695 2.705 9.235 2.59C8.545 3.625 6.705 3.625 6.935 5.35C6.475 5.46499 6.245 5.58 5.9 5.81ZM9.925 40.195C9.81 38.815 9.58 37.55 10.155 36.17C10.5 37.55 10.27 38.815 9.925 40.195ZM10.155 35.71C10.04 34.905 9.925 34.215 9.81 33.295C10.155 33.295 10.5 33.18 10.73 33.18C11.305 33.87 10.155 33.87 10.27 34.33C10.385 34.79 10.27 35.25 10.27 35.71H10.155ZM13.605 14.665C12.685 13.63 12.685 13.515 13.26 12.595C13.375 13.285 13.49 13.86 13.605 14.665ZM27.06 79.41C26.485 79.755 26.485 79.755 25.91 79.64C26.255 79.18 26.6 79.295 27.06 79.41ZM30.05 81.94C30.165 81.94 30.395 81.825 30.51 81.825C30.74 81.825 30.97 81.825 31.2 82.055C30.855 82.055 30.395 82.055 30.05 82.055V81.94ZM66.1483 64.345C65.8033 64.92 65.5733 65.265 64.8833 65.61C64.0783 66.07 63.3883 66.645 62.4683 66.99C62.3533 67.105 62.3533 67.22 62.2383 67.335C61.5483 68.37 61.4333 69.635 61.3183 70.785C61.3183 71.245 61.2033 71.475 60.7433 71.59C59.3633 72.165 57.9833 72.165 56.6033 72.05C53.7283 71.59 51.3133 70.325 49.8183 67.795C48.6683 66.07 47.9783 64 47.8633 61.815C47.7483 60.09 47.6333 58.25 48.5533 56.525C52.4633 56.985 56.1433 56.065 59.9383 55.26C59.8233 55.03 59.7083 54.8 59.5933 54.57C60.5133 54.57 61.3183 54.685 62.1233 54.57C62.8133 54.34 63.6183 54.8 64.1933 53.995C64.4233 53.65 64.8833 53.88 65.1133 54.225C65.2283 54.455 65.2283 54.685 65.4583 54.8C65.4583 54.915 65.8033 54.8 65.9183 54.685C65.8033 54.455 65.6883 54.225 65.6883 53.995C66.4933 53.535 67.0683 53.075 67.8733 52.73C68.2183 52.615 68.9083 52.5 69.1383 52.615C69.5983 53.075 70.0583 52.96 70.5183 52.73C71.0933 52.615 71.6683 52.27 72.1283 52.385C73.5083 52.73 74.4283 52.155 75.4633 51.465C76.7283 50.66 76.9583 49.395 76.0383 48.13C75.6933 47.67 75.3483 47.325 75.1183 46.865C74.8883 46.635 74.8883 46.29 74.8883 46.06C75.0033 44.105 75.2333 42.265 75.2333 40.31C75.2333 38.47 75.1183 36.745 74.5433 34.905C74.1983 33.64 74.0833 32.26 73.6233 30.995C73.5083 30.42 73.0483 29.73 72.7033 29.155C72.2433 28.35 71.6683 27.545 71.0933 26.74C69.5983 24.325 67.2983 23.06 64.5383 22.6C63.2733 22.37 61.8933 22.37 60.5133 22.37C59.1333 22.255 57.8683 22.37 56.6033 22.715C56.1433 22.83 55.5683 23.06 55.2233 22.945C53.3833 22.6 52.0033 23.52 50.6233 24.44C49.5883 25.245 48.4383 26.165 47.4033 26.97C46.1383 27.89 44.8733 29.04 44.0683 30.535C43.4933 31.685 43.0333 32.835 42.4583 33.985C41.8833 35.595 41.3083 37.09 40.6183 38.585C40.5033 38.93 40.2733 39.275 40.0433 39.735C39.5833 41.23 39.1233 42.725 38.5483 44.335C38.3183 45.14 38.0883 45.945 37.7433 46.75C36.4783 49.395 36.1333 52.385 35.6733 55.145C35.3283 57.215 35.5583 59.285 35.4433 61.355C35.4433 61.47 35.5583 61.7 35.6733 61.93C35.6733 62.505 35.7883 63.08 35.9033 63.655C36.0183 64.46 36.0183 65.265 36.2483 66.07C36.8233 67.795 37.2833 69.52 37.9733 71.13C38.6633 73.2 39.6983 75.155 40.9633 76.995C41.6533 77.915 42.4583 78.72 43.2633 79.525C46.5983 82.975 50.3933 85.505 54.9933 86.77C56.8333 87.345 58.5583 87.115 60.2833 86.655C60.9733 86.54 61.4333 86.195 61.8933 85.735C62.1233 85.39 62.5833 85.16 62.9283 84.93C63.6183 84.47 64.1933 84.125 65.1133 83.665C64.6533 83.435 64.4233 83.32 64.1933 83.09C64.7683 82.055 66.0333 81.94 66.1483 80.905C66.1483 80.905 66.2633 81.02 66.2633 81.365C67.5283 80.675 68.7933 79.985 69.9433 79.295C70.1733 79.18 70.2883 79.065 70.4033 78.835C70.9783 77.8 72.1283 76.995 71.8983 75.615C71.7833 75.5 72.0133 75.27 72.0133 75.155C72.3583 73.775 72.7033 72.395 73.0483 71.015C73.0483 70.785 73.0483 70.555 72.9333 70.44C72.5883 69.98 72.5883 69.405 72.9333 68.83C73.1633 68.37 73.1633 67.91 72.7033 67.45C72.5883 67.335 72.4733 66.99 72.4733 66.76C72.4733 66.07 72.5883 65.265 72.5883 64.46C72.3583 64.115 72.0133 63.655 71.5533 63.31C70.6333 62.62 69.4833 62.735 68.4483 62.965C68.1033 62.965 67.6433 63.195 67.2983 63.425C66.8383 63.655 66.4933 64 66.1483 64.345ZM63.5033 43.76C63.6183 43.645 63.6183 43.76 63.5033 43.76C62.9283 43.99 62.2383 44.22 61.6633 44.335C60.9733 44.45 60.3983 44.105 59.7083 44.22C58.0983 44.335 56.4883 44.45 54.8783 44.68C53.9583 44.795 53.1533 44.68 52.1183 44.45C52.3483 43.53 52.5783 42.725 52.6933 42.035C53.0383 40.885 53.2683 39.735 53.6133 38.7C54.4183 36.86 55.7983 35.365 57.4083 34.1C58.6733 33.18 60.0533 33.64 60.6283 35.02C61.2033 36.515 61.6633 38.125 62.1233 39.735C62.3533 40.655 62.3533 41.805 62.6983 42.725C62.6983 43.07 63.1583 43.3 63.5033 43.76ZM69.7133 31.34C70.0583 31.685 70.4033 31.915 70.5183 32.375C70.8633 33.64 71.4383 34.905 71.3233 36.285C71.3233 37.32 71.6683 38.24 71.6683 39.275C71.7833 40.08 71.6683 40.885 71.6683 41.805C71.6683 42.265 71.7833 42.84 71.7833 43.415C70.8633 43.53 70.7483 43.415 69.4833 41.575C69.8283 41.575 70.0583 41.69 70.4033 41.69C70.5183 41.115 69.9433 40.885 69.7133 40.31C69.3683 40.54 69.1383 40.77 68.7933 41C68.4483 40.425 68.1033 39.965 67.6433 39.39C67.9883 39.16 68.1033 39.16 68.4483 38.93C67.8733 37.09 68.1033 35.02 68.2183 32.95C68.7933 33.18 69.1383 33.64 69.2533 34.33C69.2533 35.365 69.2533 36.4 69.3683 37.55C69.3683 38.355 69.4833 39.16 69.5983 39.965C69.7133 39.965 69.9433 39.965 70.2883 39.965C70.7483 39.045 70.7483 38.01 70.4033 36.975C70.0583 36.055 69.9433 35.25 69.9433 34.33C69.9433 33.525 70.0583 32.835 69.4833 32.145C69.3683 32.03 69.4833 31.685 69.4833 31.455C69.5983 31.34 69.7133 31.34 69.7133 31.34ZM67.5283 70.9C67.9883 70.67 68.2183 70.67 68.5633 70.9C68.7933 71.015 68.9083 71.245 69.1383 71.36C69.3683 71.475 69.5983 71.475 69.9433 71.59C69.8283 72.395 69.7133 73.2 69.4833 74.005C69.3683 74.35 69.0233 74.465 68.7933 74.81C68.3333 74.005 67.9883 73.43 68.4483 72.625C68.7933 71.935 68.5633 71.705 67.9883 71.245C67.8733 71.13 67.7583 71.13 67.5283 70.9ZM70.8633 71.59C70.6333 70.785 70.1733 70.555 69.4833 70.9C69.9433 70.21 70.4033 70.555 70.7483 70.325C70.7483 70.21 70.6333 70.095 70.5183 69.75C70.8633 69.75 71.2083 69.75 71.5533 69.75C71.5533 70.095 71.5533 70.325 71.5533 70.44C71.4383 70.785 71.2083 71.015 70.8633 71.59ZM46.4833 60.435C46.3683 60.32 46.1383 60.32 46.1383 60.32C46.0233 59.285 45.3333 58.365 45.6783 57.1C46.4833 58.25 46.2533 59.4 46.5983 60.32C46.5983 60.32 46.4833 60.32 46.4833 60.435ZM69.0233 42.38C68.3333 42.035 67.5283 41.69 66.7233 41.345C67.6433 40.885 68.2183 41.115 69.0233 42.38ZM64.9983 41.23C65.2283 41.115 65.4583 41 65.8033 40.885C65.8033 41.69 65.4583 41.69 64.9983 41.575C64.9983 41.46 64.9983 41.345 64.9983 41.23ZM68.3333 50.66C68.7933 50.66 69.1383 50.545 69.5983 50.43C69.2533 51.12 68.7933 50.89 68.3333 50.66ZM40.7333 43.415C40.6183 43.76 40.3883 44.22 40.2733 44.565C40.1583 44.565 40.1583 44.45 40.0433 44.45C40.1583 44.105 40.3883 43.645 40.5033 43.3C40.6183 43.3 40.6183 43.415 40.7333 43.415ZM39.2383 46.98C39.1233 46.98 39.1233 46.865 39.1233 46.75C39.2383 46.52 39.3533 46.405 39.3533 46.29C39.4683 46.29 39.5833 46.29 39.5833 46.405C39.5833 46.635 39.4683 46.865 39.3533 47.095C39.3533 47.095 39.2383 47.095 39.2383 46.98ZM73.9683 50.89C74.1983 50.89 74.3133 51.005 74.5433 51.12C74.4283 51.12 74.4283 51.235 74.4283 51.235C74.1983 51.235 74.0833 51.235 73.8533 51.12C73.9683 51.005 73.9683 51.005 73.9683 50.89ZM46.9433 61.47C46.7133 61.47 46.5983 61.585 46.4833 61.585C46.3683 61.47 46.3683 61.355 46.2533 61.24C46.3683 61.125 46.4833 61.01 46.5983 61.125C46.7133 61.125 46.8283 61.24 46.9433 61.47ZM82.2905 25.13C82.1755 25.935 81.8305 26.51 80.7955 26.625C81.7155 27.89 82.9805 28.465 84.0155 29.27C83.7855 29.5 83.6705 29.73 83.4405 30.19C84.2455 30.19 84.9355 30.19 85.5105 30.19C86.0855 30.305 86.5455 30.42 87.0055 30.42C87.4655 30.535 87.5805 30.88 87.5805 31.455C87.4655 33.18 87.3505 34.905 87.2355 36.63C87.1205 38.585 87.2355 40.425 87.1205 42.38C87.1205 43.875 86.8905 45.485 87.0055 47.095C87.1205 49.74 87.4655 52.5 87.5805 55.26C87.6955 57.215 87.8105 59.17 87.8105 61.01C87.6955 64.345 88.0405 67.565 88.3855 70.785C88.6155 73.775 89.3055 76.65 90.3405 79.41C91.1455 81.365 92.4105 83.09 93.7905 84.47C95.9755 86.655 98.5055 88.035 101.611 88.38C102.876 88.495 104.141 88.495 105.406 88.61C108.051 88.84 110.466 88.15 112.651 86.77C113.456 86.31 114.146 85.62 114.951 85.275C115.871 84.815 116.446 84.24 116.906 83.55C117.366 82.86 117.826 81.94 117.941 81.135C117.941 80.56 117.251 80.1 116.906 79.525C116.791 79.295 116.791 79.18 116.561 79.065C115.756 78.26 114.951 77.455 114.031 76.765C112.881 76.075 111.616 75.73 110.466 75.04C109.316 74.35 108.396 74.35 107.361 75.04C106.786 75.385 106.211 75.615 105.521 75.73C104.831 75.73 103.911 75.73 103.566 74.925C103.221 74.12 103.106 73.2 102.876 72.395C102.416 70.785 102.071 69.175 101.726 67.565C101.496 66.76 101.381 65.84 101.266 64.92C101.151 64.23 101.151 63.54 101.151 62.85C101.036 60.78 100.806 58.71 100.691 56.525C100.691 52.5 100.691 48.36 100.691 44.22C100.691 40.425 101.036 36.745 101.266 32.95C101.266 32.375 101.496 32.03 102.071 31.915C103.106 31.8 104.026 31.455 105.061 31.57C106.096 31.57 107.016 31.455 108.051 31.225C108.511 31.11 109.086 30.995 109.546 30.88C111.501 30.42 113.341 30.075 115.181 29.155C116.791 28.235 117.826 27.2 118.286 25.475C118.516 24.44 118.746 23.405 117.826 22.6C116.791 21.45 115.526 20.53 114.031 20.185C112.536 19.61 111.041 19.15 109.776 18.115C109.086 17.655 108.396 17.54 107.591 17.655C106.326 17.885 104.946 17.885 103.566 17.885C103.221 17.885 102.876 17.77 102.416 17.77C101.841 17.77 101.726 17.425 101.726 16.85C101.611 15.24 101.496 13.745 101.496 12.135C101.496 10.41 101.036 8.68499 100.461 7.07499C99.8855 5.35 98.7355 3.96999 97.8155 2.475C97.2405 1.67 96.6655 1.095 95.6305 0.979997C95.4005 0.979997 95.1705 0.864999 95.0555 0.749993C94.4805 0.0599952 93.7905 0.174994 93.1005 0.519996C92.1805 0.864999 91.0305 0.979997 90.4555 1.78499C89.7655 2.705 89.1905 3.85499 88.5005 4.775C88.0405 5.58 88.1555 6.385 88.0405 7.19C87.8105 8.10999 87.6955 8.915 88.1555 9.835C88.2705 10.065 88.2705 10.41 88.2705 10.64C88.2705 12.595 88.2705 14.55 88.2705 16.505C88.3855 18.115 88.3855 18.23 86.7755 18.345C86.5455 18.46 86.2005 18.345 85.9705 18.46C85.3955 18.575 84.7055 18.69 84.1305 18.92C83.9005 18.92 83.5555 19.265 83.5555 19.38C83.7855 20.415 82.8655 20.645 82.2905 21.22C82.4055 21.335 82.4055 21.45 82.5205 21.45C82.6355 21.68 82.8655 21.91 83.0955 22.14C83.0955 23.29 83.0955 23.29 84.1305 23.635C84.3605 23.635 84.4755 23.75 84.5905 23.98C84.0155 24.785 83.3255 25.245 82.2905 25.245V25.13ZM98.2755 60.895C97.7005 58.135 97.8155 55.375 97.4705 52.615C97.5855 52.615 97.7005 52.5 97.7005 52.5C97.8155 52.73 98.0455 52.845 98.0455 53.075C98.1605 53.65 98.1605 54.225 98.1605 54.8C98.3905 56.525 98.5055 58.365 98.6205 60.09C98.6205 60.32 98.6205 60.55 98.6205 60.78C98.5055 60.78 98.3905 60.78 98.2755 60.895ZM104.256 23.75C102.646 24.095 101.036 23.98 99.3105 23.98C99.7705 23.175 100.346 23.52 100.921 23.405C101.496 23.405 102.071 23.29 102.646 23.29C103.221 23.29 103.796 23.405 104.256 23.405C104.256 23.52 104.256 23.635 104.256 23.75ZM97.4705 45.255C97.0105 44.22 97.0105 44.22 97.4705 42.725C97.8155 43.645 97.8155 44.45 97.4705 45.255ZM97.5855 49.625C97.4705 49.28 97.3555 48.82 97.3555 48.475C97.4705 48.475 97.5855 48.475 97.7005 48.475C97.7005 48.82 97.7005 49.28 97.8155 49.625C97.7005 49.625 97.5855 49.625 97.5855 49.625ZM97.7005 50.43C97.8155 50.89 97.8155 51.235 97.8155 51.695C97.8155 51.695 97.7005 51.695 97.5855 51.695C97.5855 51.35 97.5855 50.89 97.4705 50.43C97.5855 50.43 97.7005 50.43 97.7005 50.43ZM110.121 23.865C110.581 24.095 110.926 24.325 111.271 24.44C111.271 24.555 111.271 24.67 111.156 24.67C110.811 24.555 110.351 24.44 110.006 24.21C110.006 24.095 110.121 23.98 110.121 23.865ZM97.9305 28.12C98.1605 28.12 98.3905 28.005 98.5055 27.89C98.6205 27.89 98.6205 28.005 98.6205 28.005C98.5055 28.12 98.2755 28.235 98.1605 28.35C98.0455 28.235 98.0455 28.235 97.9305 28.12ZM82.2905 25.13V25.245C81.9455 25.245 81.7155 24.555 81.1405 25.015C81.4855 25.36 81.9455 25.36 82.2905 25.13ZM159.403 42.955C159.748 42.725 160.093 42.725 160.323 42.495C161.128 41.69 161.933 40.885 162.738 39.965C162.968 39.735 163.198 39.62 163.198 39.275C163.428 38.355 163.658 37.32 163.773 36.285C163.773 34.215 163.543 32.26 162.738 30.305C162.163 28.81 161.588 27.2 160.438 25.935C158.713 23.75 156.298 22.37 153.653 21.45C152.618 21.105 151.583 20.99 150.548 20.76C149.973 20.53 149.398 20.3 148.823 20.3C147.213 20.07 145.488 19.955 143.878 19.725C143.533 19.725 143.073 19.61 142.613 19.725C139.853 20.07 137.093 20.875 134.333 21.91C131.113 23.175 129.158 25.705 127.663 28.695C126.973 29.96 126.398 31.34 125.823 32.72C125.708 33.065 125.593 33.41 125.593 33.87C125.593 35.365 125.133 36.86 125.248 38.47C125.478 40.195 125.823 41.805 126.858 43.3C128.353 45.83 130.538 47.67 132.723 49.51C133.873 50.43 135.253 51.235 136.288 52.27C137.438 53.305 138.588 54.225 139.853 55.03C141.348 55.95 142.843 56.755 144.223 57.905C145.028 58.48 145.718 59.17 146.293 59.975C146.753 60.78 147.098 61.815 147.558 62.62C148.478 64.46 148.938 66.415 149.513 68.255C149.743 69.06 149.628 69.865 149.168 70.555C149.053 70.785 148.938 71.015 149.053 71.245C149.168 71.82 149.053 72.51 148.708 72.97C148.018 74.58 147.788 76.765 145.488 77.225C145.488 77.225 145.488 77.34 145.373 77.34C144.683 77.34 143.878 77.455 143.073 77.57C142.498 77.57 142.383 77.225 142.038 76.88C141.923 76.765 141.693 76.65 141.463 76.535C141.003 76.075 140.428 75.73 139.968 75.27C139.508 74.81 139.048 74.235 138.588 73.775C136.748 71.82 135.368 69.635 135.368 66.875C135.368 66.415 135.138 65.955 134.908 65.495C134.563 64.46 134.103 63.425 133.528 62.39C133.298 61.815 132.953 61.24 132.493 60.78C131.918 60.205 131.228 59.745 130.653 59.17C130.193 58.71 129.618 58.48 129.043 58.71C128.583 58.825 128.353 58.825 128.008 58.595C127.548 58.365 127.203 58.595 127.203 59.055C127.088 59.975 127.088 60.09 126.283 60.09C125.823 60.09 125.593 60.205 125.363 60.55C124.673 61.355 123.753 62.045 122.718 62.505C122.373 62.62 121.913 63.195 121.798 63.54C121.683 64.23 121.683 64.92 121.798 65.61C121.913 66.645 122.258 67.565 122.258 68.6C122.258 71.015 122.833 73.085 123.868 75.155C123.983 75.385 124.098 75.615 124.213 75.845C124.558 76.65 124.903 77.57 125.363 78.375C126.053 79.295 126.973 79.985 127.548 81.02C128.468 82.4 129.733 83.435 130.883 84.585C132.493 86.08 134.218 87.23 136.058 88.265C137.553 89.185 139.048 89.76 140.773 89.53C141.348 89.415 142.038 89.645 142.498 89.875C143.073 90.105 143.533 90.45 144.108 90.795C145.948 91.715 148.478 92.06 150.088 90.335C150.088 90.105 149.973 89.875 149.973 89.53C150.548 89.415 150.663 90.105 151.008 90.105C151.468 90.105 152.158 89.99 152.388 90.22C153.308 91.025 153.998 90.45 154.688 89.99C155.378 89.53 155.953 88.955 156.528 88.495C157.103 88.15 157.678 87.92 158.368 87.69C159.403 87.46 159.403 87.575 159.518 86.54C160.208 86.655 160.553 86.425 160.898 85.735C161.243 85.045 161.588 84.355 161.933 83.665C163.313 81.25 163.888 78.835 163.888 76.19C163.888 73.43 163.888 70.67 163.543 67.91C163.083 65.38 162.508 62.85 161.358 60.55C160.898 59.63 160.438 58.825 159.978 58.02C158.828 55.95 157.793 53.995 156.068 52.385C154.803 51.35 153.768 50.085 152.618 49.05C152.158 48.59 151.583 48.13 151.123 47.785C149.858 46.865 148.478 45.945 147.213 45.025C146.063 44.22 144.913 43.185 143.533 42.38C141.693 41.23 140.313 39.505 138.933 37.895C138.473 37.32 138.358 36.4 138.243 35.71C138.243 35.25 138.473 34.675 139.163 34.445C140.888 33.755 142.728 33.065 144.683 32.835C145.718 32.72 146.408 32.95 147.328 33.41C148.363 33.985 149.168 34.79 149.858 35.71C150.433 36.515 150.778 37.205 150.778 38.125C150.893 39.045 151.123 39.85 151.353 40.655C151.583 42.035 152.733 42.955 152.963 44.335C152.963 44.45 153.308 44.795 153.423 44.795C154.228 45.025 154.918 45.255 155.723 44.91C156.068 44.795 156.413 44.795 156.643 44.68C157.563 44.45 158.483 44.22 159.288 43.875C159.403 43.53 159.403 43.185 159.403 42.955ZM152.963 84.7C152.158 84.24 151.583 83.435 151.008 82.745C151.008 82.63 151.008 82.4 150.893 82.055C151.238 82.17 151.353 82.17 151.583 82.285C152.848 83.435 154.688 83.205 155.838 81.825C156.873 80.56 157.908 79.41 158.713 78.145C159.058 77.57 159.403 77.8 159.748 78.72C159.518 78.835 159.288 78.835 158.943 78.95C159.173 79.64 158.943 80.33 158.483 80.905C159.173 81.595 158.023 82.055 158.598 82.86C158.138 82.745 157.793 82.745 157.563 82.745C157.563 82.745 157.333 82.86 157.448 82.975C157.678 83.665 157.333 84.24 156.873 84.7C156.298 85.16 156.183 85.275 155.378 84.815C155.608 85.045 155.838 85.275 156.068 85.62C155.838 85.965 155.493 86.195 155.033 86.655C155.033 85.965 155.033 85.39 155.033 84.93C154.573 84.815 154.343 84.815 154.228 85.275C154.228 85.39 153.768 85.505 153.538 85.62C153.538 85.16 152.618 85.39 152.963 84.7ZM159.058 74.81C159.173 76.19 158.713 77.225 157.678 78.03C157.218 78.49 156.873 78.95 156.758 79.64C156.643 80.215 155.608 81.02 154.918 81.135C154.573 81.135 154.228 81.135 153.653 81.25C153.653 80.675 153.653 80.1 153.538 79.64C153.538 79.525 153.423 79.41 153.308 79.295C153.078 79.065 153.078 79.065 153.193 78.49C153.883 78.605 154.573 78.49 154.918 79.41C155.378 79.065 155.953 78.95 156.298 78.605C156.758 78.26 156.988 77.685 157.218 77.11C157.563 76.19 158.138 75.385 159.058 74.81ZM146.753 88.035C146.063 87.575 144.913 87.92 144.683 86.655C144.338 87 144.108 87.23 143.878 87.575C143.303 87 143.418 86.31 143.418 85.735C143.878 85.505 144.223 85.275 144.568 85.16C144.913 85.045 145.373 84.93 145.833 84.93C146.178 85.62 146.523 86.31 146.983 87C147.213 87.345 147.213 87.69 146.753 88.035ZM154.803 86.31C153.768 87 152.848 87.23 151.928 87.345C151.123 87.46 151.008 86.77 150.893 86.08C151.468 86.195 151.928 86.425 152.618 86.54C152.503 86.195 152.503 85.965 152.388 85.505C153.193 85.85 153.883 86.08 154.803 86.31ZM157.448 39.275C157.333 39.39 157.333 39.62 157.218 39.735C156.758 39.735 156.183 39.85 155.723 39.85C155.608 39.85 155.378 39.62 155.263 39.505C155.378 39.275 155.608 39.045 155.953 38.7C155.148 38.585 154.573 38.47 153.768 38.355C154.458 37.78 155.148 37.78 155.723 38.125C156.298 38.47 156.758 38.815 157.448 39.275ZM148.018 86.77C148.248 87 148.478 87.23 148.593 87.345C149.513 87.115 149.858 87.23 150.088 87.92C150.203 88.265 149.973 88.495 149.513 88.61C148.823 88.725 148.478 88.495 148.133 87.92C148.018 87.575 147.903 87.23 147.788 86.885C147.903 86.77 148.018 86.77 148.018 86.77ZM127.548 74.58C128.928 74.695 128.928 74.695 128.928 76.075C128.468 75.845 128.123 75.73 127.663 75.5C127.663 75.155 127.663 74.81 127.548 74.58ZM126.398 71.13C126.973 72.05 127.778 72.625 127.548 74.005C127.203 73.43 126.973 72.97 126.743 72.625C126.398 72.28 126.053 71.935 126.398 71.13ZM149.513 85.735C149.168 85.62 148.938 85.505 148.593 85.39C148.823 85.045 148.938 84.815 149.053 84.47C149.743 84.815 149.743 84.815 149.513 85.735ZM159.748 33.41C159.288 33.18 158.943 33.065 158.598 32.835C158.943 32.605 159.288 32.375 159.633 32.145C159.633 32.605 159.748 32.95 159.748 33.41ZM132.148 81.71C133.068 81.595 133.183 82.17 133.528 82.63C132.838 82.745 132.608 82.17 132.148 81.71ZM160.323 76.995C159.978 77.8 159.978 77.8 159.403 77.455C159.633 76.995 159.863 76.765 160.323 76.995ZM156.758 35.595C157.793 35.94 157.793 35.94 157.333 36.745C157.218 36.4 156.988 36.17 156.758 35.595ZM131.458 80.675C131.688 80.79 131.918 81.02 132.148 81.135C132.148 81.25 132.033 81.25 132.033 81.365C131.803 81.25 131.573 81.02 131.343 80.905C131.458 80.79 131.458 80.675 131.458 80.675ZM159.863 85.39C159.978 85.16 160.093 84.93 160.323 84.585C160.668 85.16 160.438 85.39 160.208 85.62C160.093 85.505 159.978 85.505 159.863 85.39ZM134.678 76.995C134.448 76.765 134.218 76.535 133.988 76.19C133.988 76.19 134.103 76.075 134.103 75.96C134.448 76.19 134.678 76.42 134.908 76.65C134.793 76.765 134.678 76.88 134.678 76.995ZM150.433 83.55C150.203 83.665 150.088 83.78 150.088 83.78C149.973 83.665 149.858 83.435 149.743 83.32C149.858 83.32 149.973 83.205 149.973 83.205C150.203 83.32 150.203 83.435 150.433 83.55ZM147.903 82.17C147.673 82.055 147.558 81.825 147.328 81.71C147.443 81.595 147.443 81.48 147.558 81.48C147.788 81.595 147.903 81.825 148.133 82.055C148.018 82.055 148.018 82.17 147.903 82.17ZM152.043 77.225C151.928 77.34 151.698 77.455 151.468 77.57V77.455C151.583 77.225 151.698 76.995 151.813 76.88C151.928 76.995 151.928 77.11 152.043 77.225ZM152.963 84.7C153.193 84.7 153.423 84.7 153.768 84.585V84.47C153.538 84.355 153.308 84.24 153.193 84.24C153.078 84.355 152.963 84.585 152.963 84.7ZM181.043 38.125C181.158 37.665 181.388 37.32 181.503 36.975C181.848 36.055 181.733 35.135 181.618 34.215C181.618 31.915 181.618 29.5 181.618 27.2C181.618 25.935 181.733 24.67 181.733 23.29C181.618 19.84 181.043 16.275 181.273 12.71C181.388 12.595 181.273 12.48 181.273 12.25C181.273 11.56 181.273 10.755 181.273 9.95C181.158 8.455 181.043 6.96 180.238 5.58C179.663 4.42999 178.053 3.625 176.673 3.96999C176.328 4.085 175.868 4.2 175.523 4.2C174.718 4.2 174.143 4.42999 173.683 5.00499C173.453 5.35 173.223 5.695 172.993 5.925C171.843 7.305 170.808 8.57 170.808 10.525C170.808 11.33 170.808 12.135 170.578 12.94C170.118 16.045 169.773 19.15 169.658 22.37C169.658 24.9 170.003 27.43 170.348 29.96C170.463 30.42 170.348 30.995 170.348 31.455C170.348 32.145 170.348 32.835 170.463 33.64C170.808 34.79 171.383 35.94 170.808 37.205C171.613 37.435 171.498 36.515 172.073 36.17C172.533 37.665 173.108 38.93 174.258 39.85C174.948 39.275 174.488 38.7 174.603 38.01C174.833 37.895 175.063 37.78 175.523 37.55C175.983 38.24 176.443 38.7 176.903 39.275C177.363 39.045 177.823 38.815 178.283 38.47C178.398 38.24 178.513 37.895 178.628 37.665C179.893 37.32 179.893 37.32 181.043 38.125ZM224.427 42.955C224.772 42.725 225.117 42.725 225.347 42.495C226.152 41.69 226.957 40.885 227.762 39.965C227.992 39.735 228.222 39.62 228.222 39.275C228.452 38.355 228.682 37.32 228.797 36.285C228.797 34.215 228.567 32.26 227.762 30.305C227.187 28.81 226.612 27.2 225.462 25.935C223.737 23.75 221.322 22.37 218.677 21.45C217.642 21.105 216.607 20.99 215.572 20.76C214.997 20.53 214.422 20.3 213.847 20.3C212.237 20.07 210.512 19.955 208.902 19.725C208.557 19.725 208.097 19.61 207.637 19.725C204.877 20.07 202.117 20.875 199.357 21.91C196.137 23.175 194.182 25.705 192.687 28.695C191.997 29.96 191.422 31.34 190.847 32.72C190.732 33.065 190.617 33.41 190.617 33.87C190.617 35.365 190.157 36.86 190.272 38.47C190.502 40.195 190.847 41.805 191.882 43.3C193.377 45.83 195.562 47.67 197.747 49.51C198.897 50.43 200.277 51.235 201.312 52.27C202.462 53.305 203.612 54.225 204.877 55.03C206.372 55.95 207.867 56.755 209.247 57.905C210.052 58.48 210.742 59.17 211.317 59.975C211.777 60.78 212.122 61.815 212.582 62.62C213.502 64.46 213.962 66.415 214.537 68.255C214.767 69.06 214.652 69.865 214.192 70.555C214.077 70.785 213.962 71.015 214.077 71.245C214.192 71.82 214.077 72.51 213.732 72.97C213.042 74.58 212.812 76.765 210.512 77.225C210.512 77.225 210.512 77.34 210.397 77.34C209.707 77.34 208.902 77.455 208.097 77.57C207.522 77.57 207.407 77.225 207.062 76.88C206.947 76.765 206.717 76.65 206.487 76.535C206.027 76.075 205.452 75.73 204.992 75.27C204.532 74.81 204.072 74.235 203.612 73.775C201.772 71.82 200.392 69.635 200.392 66.875C200.392 66.415 200.162 65.955 199.932 65.495C199.587 64.46 199.127 63.425 198.552 62.39C198.322 61.815 197.977 61.24 197.517 60.78C196.942 60.205 196.252 59.745 195.677 59.17C195.217 58.71 194.642 58.48 194.067 58.71C193.607 58.825 193.377 58.825 193.032 58.595C192.572 58.365 192.227 58.595 192.227 59.055C192.112 59.975 192.112 60.09 191.307 60.09C190.847 60.09 190.617 60.205 190.387 60.55C189.697 61.355 188.777 62.045 187.742 62.505C187.397 62.62 186.937 63.195 186.822 63.54C186.707 64.23 186.707 64.92 186.822 65.61C186.937 66.645 187.282 67.565 187.282 68.6C187.282 71.015 187.857 73.085 188.892 75.155C189.007 75.385 189.122 75.615 189.237 75.845C189.582 76.65 189.927 77.57 190.387 78.375C191.077 79.295 191.997 79.985 192.572 81.02C193.492 82.4 194.757 83.435 195.907 84.585C197.517 86.08 199.242 87.23 201.082 88.265C202.577 89.185 204.072 89.76 205.797 89.53C206.372 89.415 207.062 89.645 207.522 89.875C208.097 90.105 208.557 90.45 209.132 90.795C210.972 91.715 213.502 92.06 215.112 90.335C215.112 90.105 214.997 89.875 214.997 89.53C215.572 89.415 215.687 90.105 216.032 90.105C216.492 90.105 217.182 89.99 217.412 90.22C218.332 91.025 219.022 90.45 219.712 89.99C220.402 89.53 220.977 88.955 221.552 88.495C222.127 88.15 222.702 87.92 223.392 87.69C224.427 87.46 224.427 87.575 224.542 86.54C225.232 86.655 225.577 86.425 225.922 85.735C226.267 85.045 226.612 84.355 226.957 83.665C228.337 81.25 228.912 78.835 228.912 76.19C228.912 73.43 228.912 70.67 228.567 67.91C228.107 65.38 227.532 62.85 226.382 60.55C225.922 59.63 225.462 58.825 225.002 58.02C223.852 55.95 222.817 53.995 221.092 52.385C219.827 51.35 218.792 50.085 217.642 49.05C217.182 48.59 216.607 48.13 216.147 47.785C214.882 46.865 213.502 45.945 212.237 45.025C211.087 44.22 209.937 43.185 208.557 42.38C206.717 41.23 205.337 39.505 203.957 37.895C203.497 37.32 203.382 36.4 203.267 35.71C203.267 35.25 203.497 34.675 204.187 34.445C205.912 33.755 207.752 33.065 209.707 32.835C210.742 32.72 211.432 32.95 212.352 33.41C213.387 33.985 214.192 34.79 214.882 35.71C215.457 36.515 215.802 37.205 215.802 38.125C215.917 39.045 216.147 39.85 216.377 40.655C216.607 42.035 217.757 42.955 217.987 44.335C217.987 44.45 218.332 44.795 218.447 44.795C219.252 45.025 219.942 45.255 220.747 44.91C221.092 44.795 221.437 44.795 221.667 44.68C222.587 44.45 223.507 44.22 224.312 43.875C224.427 43.53 224.427 43.185 224.427 42.955ZM217.987 84.7C217.182 84.24 216.607 83.435 216.032 82.745C216.032 82.63 216.032 82.4 215.917 82.055C216.262 82.17 216.377 82.17 216.607 82.285C217.872 83.435 219.712 83.205 220.862 81.825C221.897 80.56 222.932 79.41 223.737 78.145C224.082 77.57 224.427 77.8 224.772 78.72C224.542 78.835 224.312 78.835 223.967 78.95C224.197 79.64 223.967 80.33 223.507 80.905C224.197 81.595 223.047 82.055 223.622 82.86C223.162 82.745 222.817 82.745 222.587 82.745C222.587 82.745 222.357 82.86 222.472 82.975C222.702 83.665 222.357 84.24 221.897 84.7C221.322 85.16 221.207 85.275 220.402 84.815C220.632 85.045 220.862 85.275 221.092 85.62C220.862 85.965 220.517 86.195 220.057 86.655C220.057 85.965 220.057 85.39 220.057 84.93C219.597 84.815 219.367 84.815 219.252 85.275C219.252 85.39 218.792 85.505 218.562 85.62C218.562 85.16 217.642 85.39 217.987 84.7ZM224.082 74.81C224.197 76.19 223.737 77.225 222.702 78.03C222.242 78.49 221.897 78.95 221.782 79.64C221.667 80.215 220.632 81.02 219.942 81.135C219.597 81.135 219.252 81.135 218.677 81.25C218.677 80.675 218.677 80.1 218.562 79.64C218.562 79.525 218.447 79.41 218.332 79.295C218.102 79.065 218.102 79.065 218.217 78.49C218.907 78.605 219.597 78.49 219.942 79.41C220.402 79.065 220.977 78.95 221.322 78.605C221.782 78.26 222.012 77.685 222.242 77.11C222.587 76.19 223.162 75.385 224.082 74.81ZM211.777 88.035C211.087 87.575 209.937 87.92 209.707 86.655C209.362 87 209.132 87.23 208.902 87.575C208.327 87 208.442 86.31 208.442 85.735C208.902 85.505 209.247 85.275 209.592 85.16C209.937 85.045 210.397 84.93 210.857 84.93C211.202 85.62 211.547 86.31 212.007 87C212.237 87.345 212.237 87.69 211.777 88.035ZM219.827 86.31C218.792 87 217.872 87.23 216.952 87.345C216.147 87.46 216.032 86.77 215.917 86.08C216.492 86.195 216.952 86.425 217.642 86.54C217.527 86.195 217.527 85.965 217.412 85.505C218.217 85.85 218.907 86.08 219.827 86.31ZM222.472 39.275C222.357 39.39 222.357 39.62 222.242 39.735C221.782 39.735 221.207 39.85 220.747 39.85C220.632 39.85 220.402 39.62 220.287 39.505C220.402 39.275 220.632 39.045 220.977 38.7C220.172 38.585 219.597 38.47 218.792 38.355C219.482 37.78 220.172 37.78 220.747 38.125C221.322 38.47 221.782 38.815 222.472 39.275ZM213.042 86.77C213.272 87 213.502 87.23 213.617 87.345C214.537 87.115 214.882 87.23 215.112 87.92C215.227 88.265 214.997 88.495 214.537 88.61C213.847 88.725 213.502 88.495 213.157 87.92C213.042 87.575 212.927 87.23 212.812 86.885C212.927 86.77 213.042 86.77 213.042 86.77ZM192.572 74.58C193.952 74.695 193.952 74.695 193.952 76.075C193.492 75.845 193.147 75.73 192.687 75.5C192.687 75.155 192.687 74.81 192.572 74.58ZM191.422 71.13C191.997 72.05 192.802 72.625 192.572 74.005C192.227 73.43 191.997 72.97 191.767 72.625C191.422 72.28 191.077 71.935 191.422 71.13ZM214.537 85.735C214.192 85.62 213.962 85.505 213.617 85.39C213.847 85.045 213.962 84.815 214.077 84.47C214.767 84.815 214.767 84.815 214.537 85.735ZM224.772 33.41C224.312 33.18 223.967 33.065 223.622 32.835C223.967 32.605 224.312 32.375 224.657 32.145C224.657 32.605 224.772 32.95 224.772 33.41ZM197.172 81.71C198.092 81.595 198.207 82.17 198.552 82.63C197.862 82.745 197.632 82.17 197.172 81.71ZM225.347 76.995C225.002 77.8 225.002 77.8 224.427 77.455C224.657 76.995 224.887 76.765 225.347 76.995ZM221.782 35.595C222.817 35.94 222.817 35.94 222.357 36.745C222.242 36.4 222.012 36.17 221.782 35.595ZM196.482 80.675C196.712 80.79 196.942 81.02 197.172 81.135C197.172 81.25 197.057 81.25 197.057 81.365C196.827 81.25 196.597 81.02 196.367 80.905C196.482 80.79 196.482 80.675 196.482 80.675ZM224.887 85.39C225.002 85.16 225.117 84.93 225.347 84.585C225.692 85.16 225.462 85.39 225.232 85.62C225.117 85.505 225.002 85.505 224.887 85.39ZM199.702 76.995C199.472 76.765 199.242 76.535 199.012 76.19C199.012 76.19 199.127 76.075 199.127 75.96C199.472 76.19 199.702 76.42 199.932 76.65C199.817 76.765 199.702 76.88 199.702 76.995ZM215.457 83.55C215.227 83.665 215.112 83.78 215.112 83.78C214.997 83.665 214.882 83.435 214.767 83.32C214.882 83.32 214.997 83.205 214.997 83.205C215.227 83.32 215.227 83.435 215.457 83.55ZM212.927 82.17C212.697 82.055 212.582 81.825 212.352 81.71C212.467 81.595 212.467 81.48 212.582 81.48C212.812 81.595 212.927 81.825 213.157 82.055C213.042 82.055 213.042 82.17 212.927 82.17ZM217.067 77.225C216.952 77.34 216.722 77.455 216.492 77.57V77.455C216.607 77.225 216.722 76.995 216.837 76.88C216.952 76.995 216.952 77.11 217.067 77.225ZM217.987 84.7C218.217 84.7 218.447 84.7 218.792 84.585V84.47C218.562 84.355 218.332 84.24 218.217 84.24C218.102 84.355 217.987 84.585 217.987 84.7ZM2.51 147.06C2.38 147.97 1.99 148.62 0.82 148.75C1.86 150.18 3.29 150.83 4.46 151.74C4.2 152 4.07 152.26 3.81 152.78C4.72 152.78 5.5 152.78 6.15 152.78C6.8 152.91 7.32 153.04 7.84 153.04C8.36 153.17 8.49 153.56 8.49 154.21C8.36 156.16 8.23 158.11 8.1 160.06C7.97 162.27 8.1 164.35 7.97 166.56C7.97 168.25 7.71 170.07 7.84 171.89C7.97 174.88 8.36 178 8.49 181.12C8.62 183.33 8.75 185.54 8.75 187.62C8.62 191.39 9.01 195.03 9.4 198.67C9.66 202.05 10.44 205.3 11.61 208.42C12.52 210.63 13.95 212.58 15.51 214.14C17.98 216.61 20.84 218.17 24.35 218.56C25.78 218.69 27.21 218.69 28.64 218.82C31.63 219.08 34.36 218.3 36.83 216.74C37.74 216.22 38.52 215.44 39.43 215.05C40.47 214.53 41.12 213.88 41.64 213.1C42.16 212.32 42.68 211.28 42.81 210.37C42.81 209.72 42.03 209.2 41.64 208.55C41.51 208.29 41.51 208.16 41.25 208.03C40.34 207.12 39.43 206.21 38.39 205.43C37.09 204.65 35.66 204.26 34.36 203.48C33.06 202.7 32.02 202.7 30.85 203.48C30.2 203.87 29.55 204.13 28.77 204.26C27.99 204.26 26.95 204.26 26.56 203.35C26.17 202.44 26.04 201.4 25.78 200.49C25.26 198.67 24.87 196.85 24.48 195.03C24.22 194.12 24.09 193.08 23.96 192.04C23.83 191.26 23.83 190.48 23.83 189.7C23.7 187.36 23.44 185.02 23.31 182.55C23.31 178 23.31 173.32 23.31 168.64C23.31 164.35 23.7 160.19 23.96 155.9C23.96 155.25 24.22 154.86 24.87 154.73C26.04 154.6 27.08 154.21 28.25 154.34C29.42 154.34 30.46 154.21 31.63 153.95C32.15 153.82 32.8 153.69 33.32 153.56C35.53 153.04 37.61 152.65 39.69 151.61C41.51 150.57 42.68 149.4 43.2 147.45C43.46 146.28 43.72 145.11 42.68 144.2C41.51 142.9 40.08 141.86 38.39 141.47C36.7 140.82 35.01 140.3 33.58 139.13C32.8 138.61 32.02 138.48 31.11 138.61C29.68 138.87 28.12 138.87 26.56 138.87C26.17 138.87 25.78 138.74 25.26 138.74C24.61 138.74 24.48 138.35 24.48 137.7C24.35 135.88 24.22 134.19 24.22 132.37C24.22 130.42 23.7 128.47 23.05 126.65C22.4 124.7 21.1 123.14 20.06 121.45C19.41 120.54 18.76 119.89 17.59 119.76C17.33 119.76 17.07 119.63 16.94 119.5C16.29 118.72 15.51 118.85 14.73 119.24C13.69 119.63 12.39 119.76 11.74 120.67C10.96 121.71 10.31 123.01 9.53 124.05C9.01 124.96 9.14 125.87 9.01 126.78C8.75 127.82 8.62 128.73 9.14 129.77C9.27 130.03 9.27 130.42 9.27 130.68C9.27 132.89 9.27 135.1 9.27 137.31C9.4 139.13 9.4 139.26 7.58 139.39C7.32 139.52 6.93 139.39 6.67 139.52C6.02 139.65 5.24 139.78 4.59 140.04C4.33 140.04 3.94 140.43 3.94 140.56C4.2 141.73 3.16 141.99 2.51 142.64C2.64 142.77 2.64 142.9 2.77 142.9C2.9 143.16 3.16 143.42 3.42 143.68C3.42 144.98 3.42 144.98 4.59 145.37C4.85 145.37 4.98 145.5 5.11 145.76C4.46 146.67 3.68 147.19 2.51 147.19V147.06ZM20.58 187.49C19.93 184.37 20.06 181.25 19.67 178.13C19.8 178.13 19.93 178 19.93 178C20.06 178.26 20.32 178.39 20.32 178.65C20.45 179.3 20.45 179.95 20.45 180.6C20.71 182.55 20.84 184.63 20.97 186.58C20.97 186.84 20.97 187.1 20.97 187.36C20.84 187.36 20.71 187.36 20.58 187.49ZM27.34 145.5C25.52 145.89 23.7 145.76 21.75 145.76C22.27 144.85 22.92 145.24 23.57 145.11C24.22 145.11 24.87 144.98 25.52 144.98C26.17 144.98 26.82 145.11 27.34 145.11C27.34 145.24 27.34 145.37 27.34 145.5ZM19.67 169.81C19.15 168.64 19.15 168.64 19.67 166.95C20.06 167.99 20.06 168.9 19.67 169.81ZM19.8 174.75C19.67 174.36 19.54 173.84 19.54 173.45C19.67 173.45 19.8 173.45 19.93 173.45C19.93 173.84 19.93 174.36 20.06 174.75C19.93 174.75 19.8 174.75 19.8 174.75ZM19.93 175.66C20.06 176.18 20.06 176.57 20.06 177.09C20.06 177.09 19.93 177.09 19.8 177.09C19.8 176.7 19.8 176.18 19.67 175.66C19.8 175.66 19.93 175.66 19.93 175.66ZM33.97 145.63C34.49 145.89 34.88 146.15 35.27 146.28C35.27 146.41 35.27 146.54 35.14 146.54C34.75 146.41 34.23 146.28 33.84 146.02C33.84 145.89 33.97 145.76 33.97 145.63ZM20.19 150.44C20.45 150.44 20.71 150.31 20.84 150.18C20.97 150.18 20.97 150.31 20.97 150.31C20.84 150.44 20.58 150.57 20.45 150.7C20.32 150.57 20.32 150.57 20.19 150.44ZM2.51 147.06V147.19C2.12 147.19 1.86 146.41 1.21 146.93C1.6 147.32 2.12 147.32 2.51 147.06ZM65.7601 213.62C65.8901 212.45 65.8901 212.45 65.1101 211.67C64.8501 211.28 64.7201 210.89 64.7201 210.5C64.5901 208.94 64.4601 207.25 64.4601 205.69C64.3301 204.26 64.2001 202.83 64.2001 201.27C64.0701 199.71 63.8101 198.15 63.8101 196.59C63.8101 192.95 64.0701 189.44 64.2001 185.93C64.2001 184.11 64.3301 182.16 64.3301 180.34C64.4601 177.61 64.4601 174.88 64.5901 172.28C64.7201 170.07 65.1101 167.86 66.4101 166.04C66.6701 165.65 66.8001 165.26 67.0601 165C68.1001 163.7 69.0101 162.27 70.0501 160.97C70.3101 160.71 70.9601 160.45 71.3501 160.45C72.9101 160.32 75.6401 162.27 76.0301 163.96C76.2901 164.87 76.5501 165.91 76.8101 166.82C77.0701 167.86 77.3301 168.9 77.7201 170.07C77.9801 170.98 78.1101 171.89 78.3701 172.8C78.5001 173.19 78.6301 173.58 78.7601 173.97C78.8901 175.79 79.1501 177.61 79.4101 179.43C79.5401 181.25 79.9301 183.07 79.9301 185.02C79.9301 190.22 79.9301 195.55 79.9301 200.88C79.9301 201.53 79.8001 202.31 79.8001 202.96C79.8001 204 79.8001 205.04 79.6701 206.08C79.5401 207.25 78.8901 208.42 79.6701 209.46C79.8001 209.59 79.8001 209.85 79.6701 209.85C79.5401 210.76 79.8001 211.54 79.4101 212.32C79.2801 212.58 79.4101 212.84 79.4101 212.97C79.5401 213.23 79.8001 213.49 79.8001 213.62C79.8001 214.92 79.6701 216.09 79.6701 217.52C79.9301 218.04 81.1001 218.04 80.8401 219.21C80.3201 218.95 80.0601 218.82 79.5401 218.43C79.4101 219.21 79.4101 219.6 79.4101 220.12C79.4101 220.9 79.6701 221.29 80.4501 221.68C81.1001 221.81 81.6201 222.2 82.1401 222.46C82.7901 222.07 83.3101 221.68 83.9601 221.55C85.5201 221.29 86.9501 220.9 88.3801 220.12C88.7701 219.86 89.1601 219.73 89.6801 219.6C90.9801 219.21 92.2801 218.82 93.5801 218.43C94.4901 218.17 94.7501 217.52 94.7501 216.61C94.7501 214.27 94.7501 211.93 94.7501 209.59C94.7501 208.68 94.8801 207.64 94.8801 206.73C95.0101 205.95 95.2701 205.17 95.2701 204.26C95.2701 201.27 95.4001 198.15 95.4001 195.16C95.4001 191.13 95.2701 187.1 95.2701 183.07C95.2701 182.55 95.1401 181.9 95.1401 181.25C95.1401 180.6 95.0101 179.95 95.0101 179.3C95.0101 178.52 95.0101 177.74 94.8801 176.96C94.7501 174.75 94.3601 172.67 94.3601 170.59C94.2301 168.9 94.2301 167.21 94.3601 165.52C94.3601 162.79 94.3601 160.06 93.7101 157.33C93.3201 155.38 92.5401 153.56 91.2401 152.13C89.5501 150.18 87.6001 148.62 85.2601 147.71C83.4401 147.06 81.6201 146.28 79.8001 146.15C76.1601 145.89 72.6501 145.76 69.0101 146.28C68.7501 146.28 68.4901 146.28 68.1001 146.28C67.5801 146.28 67.1901 146.02 67.3201 145.37C67.3201 144.46 67.3201 143.55 67.5801 142.64C67.9701 140.43 68.1001 138.22 68.1001 136.01C68.1001 134.06 67.9701 131.98 66.8001 130.29C66.4101 129.51 65.7601 128.73 65.1101 128.08C63.4201 126.26 61.4701 125.09 58.8701 125.22C58.2201 125.22 57.8301 125.35 57.3101 125.74C56.5301 126.39 55.6201 127.04 54.9701 127.69C54.3201 128.34 53.6701 129.12 53.4101 129.9C53.0201 130.94 52.5001 132.11 52.6301 133.28C52.6301 133.93 52.2401 134.45 52.1101 135.1C51.9801 135.36 51.7201 135.75 51.7201 136.14C51.0701 139.52 50.4201 143.03 49.9001 146.41C49.3801 149.53 49.1201 152.65 48.8601 155.9C48.6001 158.24 48.4701 160.58 48.3401 163.05C48.0801 165.65 47.9501 168.25 47.8201 170.85C47.5601 173.84 47.4301 176.83 47.3001 179.82C47.1701 182.42 47.1701 185.02 47.3001 187.62C47.3001 189.83 47.6901 192.04 47.6901 194.25C47.6901 196.33 47.4301 198.41 47.4301 200.62C47.5601 203.74 47.8201 206.99 47.9501 210.11C48.0801 211.54 47.9501 212.97 48.2101 214.4C48.4701 215.83 48.9901 217.13 49.3801 218.43C49.3801 218.69 49.6401 218.95 49.7701 219.08C50.9401 219.86 52.2401 219.99 53.5401 219.47C54.0601 219.21 54.5801 218.95 55.1001 218.82C55.3601 218.69 55.6201 218.56 55.7501 218.69C57.0501 219.34 58.4801 219.21 59.7801 219.47C60.8201 219.6 62.1201 219.47 62.5101 218.04C62.9001 216.87 63.4201 215.83 63.8101 214.66C64.0701 213.75 64.0701 213.62 65.1101 213.62C65.3701 213.62 65.5001 213.62 65.7601 213.62ZM55.8801 205.69C56.0101 205.82 56.2701 206.08 56.2701 206.21C56.4001 206.47 56.2701 206.73 56.2701 206.99H55.8801C55.7501 206.86 55.7501 206.6 55.7501 206.34C55.7501 206.21 55.7501 205.95 55.8801 205.69C56.0101 205.3 56.2701 204.91 56.5301 204.39C56.7901 204.78 56.9201 205.17 57.3101 205.69C56.6601 205.69 56.2701 205.69 55.8801 205.69ZM89.4201 209.59C90.2001 210.37 90.5901 211.28 90.5901 212.45C90.0701 212.58 89.5501 212.45 89.1601 211.93C88.7701 211.41 88.2501 211.02 87.7301 210.63C86.8201 209.72 86.0401 208.81 85.6501 207.38C86.5601 207.77 87.2101 208.29 87.9901 208.81C88.3801 209.2 89.0301 209.33 89.4201 209.72C89.2901 209.46 89.2901 209.07 89.0301 208.94C87.9901 208.03 87.3401 206.99 87.2101 205.56C87.2101 205.17 86.9501 204.78 86.9501 204.52C86.8201 204.26 86.9501 204 86.9501 203.74C87.0801 203.22 87.2101 202.7 87.3401 202.05C87.4701 202.18 87.6001 202.18 87.8601 202.18C87.8601 201.66 87.8601 201.66 86.8201 201.66C86.6901 200.75 86.3001 199.97 86.9501 199.06C86.9501 198.93 87.0801 198.54 86.9501 198.41C86.3001 196.85 86.6901 195.03 86.5601 193.34C86.5601 192.95 86.1701 192.56 86.1701 192.04C86.1701 191.26 86.3001 190.35 86.3001 189.18C86.5601 189.7 86.6901 189.83 86.8201 190.09C87.0801 189.83 87.2101 189.57 87.3401 189.31C87.3401 189.31 87.4701 189.31 87.4701 189.44C87.6001 189.7 87.7301 190.09 87.7301 190.48C87.7301 191.65 87.6001 192.69 87.6001 193.86C87.4701 194.25 87.6001 194.77 87.6001 195.16C87.6001 195.16 87.7301 195.16 87.8601 195.16C88.2501 193.73 88.6401 192.17 88.9001 190.74C89.0301 190.74 89.1601 190.74 89.2901 190.74C89.4201 192.17 89.5501 193.6 89.6801 195.03C89.9401 194.9 90.0701 194.9 90.3301 194.77C90.7201 195.29 91.6301 195.68 90.8501 196.59C90.7201 196.59 90.7201 196.85 90.7201 196.98C90.8501 197.76 90.9801 198.67 91.2401 199.45C91.2401 198.41 91.3701 197.24 91.5001 196.2C91.8901 195.94 92.4101 195.68 92.6701 195.29C92.8001 194.9 92.6701 194.38 92.8001 193.86C91.3701 193.21 91.3701 191.91 91.3701 190.61C91.5001 189.57 91.5001 188.66 91.6301 187.75C91.6301 187.23 92.0201 186.71 92.0201 186.19C92.0201 185.67 91.5001 185.02 91.6301 184.63C91.8901 183.59 91.2401 182.81 91.6301 181.77C91.1101 182.42 91.1101 183.07 91.1101 183.72C91.1101 184.89 90.9801 186.06 90.9801 187.23C90.9801 187.62 90.8501 187.88 90.3301 187.75C90.2001 187.62 90.0701 187.36 90.2001 187.1C90.2001 185.28 90.3301 183.33 89.4201 181.51C89.2901 181.12 89.2901 180.47 89.4201 179.95C89.6801 178 89.4201 176.18 89.4201 174.36C89.2901 173.84 89.2901 173.32 89.2901 172.54C89.6801 172.93 89.8101 173.19 90.0701 173.58C90.2001 172.28 89.9401 171.11 89.8101 170.07C89.6801 169.03 89.6801 167.99 89.6801 166.82C89.8101 165.78 89.2901 164.61 89.0301 163.31C89.2901 163.57 89.5501 163.57 89.5501 163.7C89.9401 164.61 90.3301 165.52 90.5901 166.3C90.8501 167.21 90.9801 168.25 91.1101 169.16C91.5001 170.72 91.8901 172.41 92.1501 174.1C92.2801 175.14 92.2801 176.31 92.5401 177.35C92.9301 179.82 92.8001 182.29 92.9301 184.76C93.0601 186.58 93.3201 188.53 93.4501 190.35C93.4501 190.61 93.4501 190.87 93.4501 191.26C93.4501 191.65 93.4501 193.47 93.4501 193.86C93.7101 194.9 93.5801 195.94 93.4501 196.98C93.3201 197.37 93.4501 197.76 93.5801 198.28C93.8401 199.19 94.1001 200.23 93.7101 201.4C93.1901 201.14 92.8001 200.88 92.5401 200.75C92.5401 203.09 92.5401 205.56 92.5401 208.16C93.1901 207.64 93.3201 207.12 93.1901 206.6C93.0601 205.82 92.8001 205.04 92.8001 204.26C92.8001 203.48 92.8001 202.57 93.5801 201.92C93.7101 202.18 93.9701 202.31 93.9701 202.57C93.9701 203.61 93.9701 204.65 93.9701 205.69C93.8401 206.08 93.8401 206.6 93.8401 207.12C93.7101 207.51 93.5801 207.9 93.5801 208.42C93.5801 208.55 93.4501 208.81 93.5801 208.94C94.1001 209.98 93.9701 210.89 93.3201 211.93C93.1901 212.19 93.1901 212.58 93.1901 212.84C92.5401 212.71 91.8901 212.58 91.1101 212.45C91.1101 210.37 90.9801 208.29 90.8501 206.21C90.5901 206.21 90.2001 206.34 89.8101 206.34C90.0701 207.51 90.3301 208.55 90.5901 209.72C90.0701 209.72 89.8101 209.59 89.4201 209.59ZM84.7401 161.75C84.7401 162.14 84.8701 162.53 85.0001 162.92C85.6501 165.78 86.5601 168.51 86.8201 171.37C86.8201 172.02 87.0801 172.67 87.2101 173.45C87.3401 174.1 87.4701 174.75 87.4701 175.4C87.6001 177.22 87.7301 178.91 87.7301 180.73C87.7301 182.29 87.6001 183.85 87.6001 185.41C87.4701 186.19 87.6001 186.97 87.4701 187.75C86.8201 186.71 86.5601 185.67 86.5601 184.63C86.4301 181.77 86.3001 179.04 86.0401 176.31C86.0401 174.75 85.9101 173.06 85.7801 171.5C85.5201 169.81 85.2601 168.25 85.1301 166.56C84.8701 165 84.7401 163.44 84.4801 161.88C84.6101 161.75 84.6101 161.75 84.7401 161.75ZM83.1801 210.24C82.4001 209.2 82.0101 208.42 82.5301 207.38C82.7901 206.99 82.4001 206.34 82.4001 205.95C82.4001 204.13 82.5301 202.18 82.5301 200.36C82.5301 199.32 82.6601 198.15 82.6601 196.98C82.7901 194.9 82.7901 192.95 82.9201 191C82.9201 190.87 82.9201 190.74 83.0501 190.35C83.1801 190.87 83.4401 191.13 83.4401 191.39C83.4401 194.12 83.5701 196.85 83.7001 199.58C83.7001 201.14 83.8301 202.57 83.7001 204.13C83.5701 205.04 83.4401 206.08 83.4401 207.12C83.5701 207.9 83.4401 208.81 83.4401 209.59C83.4401 209.72 83.3101 209.85 83.1801 210.24ZM55.6201 190.09C55.7501 189.96 56.0101 189.96 56.1401 189.83C56.4001 189.44 56.0101 189.44 55.8801 189.31C55.7501 189.05 55.6201 188.79 55.6201 188.53C55.4901 187.36 55.6201 186.06 55.4901 184.89C55.3601 183.07 55.4901 181.12 55.1001 179.3C54.9701 178.52 55.2301 177.61 55.1001 176.7C55.1001 176.44 55.2301 176.18 55.6201 175.79C55.7501 176.57 56.0101 177.35 56.0101 178C56.0101 179.43 56.1401 180.99 56.4001 182.42C56.4001 182.55 56.4001 182.81 56.2701 182.94C55.8801 183.59 56.2701 183.85 56.7901 183.98C56.1401 184.5 56.5301 185.15 56.6601 185.67C56.7901 185.93 56.7901 186.06 56.6601 186.32C56.4001 186.71 56.2701 187.23 56.4001 187.49C56.5301 188.53 56.5301 189.44 56.4001 190.48C56.2701 191.91 56.5301 193.34 56.1401 194.77C56.1401 195.03 56.0101 195.29 55.8801 195.68C55.3601 193.86 55.2301 192.04 55.6201 190.09ZM58.7401 186.19C58.6101 184.63 58.2201 183.46 58.6101 182.16C58.7401 181.25 58.4801 180.21 58.4801 179.3C58.4801 178.91 58.4801 178.65 58.7401 178.26C58.7401 178.39 58.8701 178.65 58.8701 178.78C59.0001 179.82 59.2601 180.73 59.3901 181.77C59.5201 182.68 59.6501 183.46 59.2601 184.37C59.0001 184.76 59.0001 185.41 58.7401 186.19ZM56.1401 165.78C55.7501 165.78 55.4901 165.78 55.1001 165.78C55.3601 162.66 55.6201 159.54 55.8801 156.29C56.2701 156.94 56.2701 157.59 56.1401 158.37C56.0101 160.32 55.8801 162.27 55.7501 164.22C55.7501 164.74 56.0101 165.26 56.1401 165.78ZM48.9901 205.56C49.1201 205.69 49.2501 205.82 49.2501 205.95C48.9901 206.6 49.2501 207.12 49.3801 207.77C49.5101 208.55 49.6401 209.33 49.7701 210.11C49.7701 210.63 49.9001 211.15 49.9001 211.8C49.1201 211.8 48.7301 211.67 48.7301 211.15C48.7301 209.33 48.7301 207.38 48.7301 205.56C48.8601 205.56 48.8601 205.56 48.9901 205.56ZM81.6201 192.43C80.5801 191.52 81.3601 190.48 81.1001 189.57C80.9701 188.66 81.2301 187.49 81.2301 186.58C81.2301 185.54 81.2301 184.5 81.3601 183.59C81.7501 186.45 81.2301 189.44 81.6201 192.43ZM54.5801 207.25C54.9701 207.51 55.2301 207.64 55.4901 207.9C55.8801 208.29 56.2701 208.81 56.5301 209.2C56.6601 209.46 56.7901 209.85 56.6601 209.98C56.6601 210.24 56.2701 210.24 56.0101 210.24C55.3601 210.24 54.9701 209.98 54.8401 209.33C54.8401 208.68 54.7101 208.16 54.5801 207.25ZM55.8801 169.03C55.8801 171.11 55.7501 173.06 55.6201 175.01C55.4901 175.01 55.4901 175.01 55.3601 175.01C55.2301 173.06 55.2301 170.98 55.6201 169.03C55.7501 169.03 55.8801 169.03 55.8801 169.03ZM58.7401 193.34C59.0001 194.25 59.1301 195.03 59.2601 195.81C59.2601 195.94 59.0001 196.07 58.7401 196.2C58.7401 196.2 58.4801 195.94 58.3501 195.81C58.3501 195.03 58.3501 194.25 58.3501 193.47C58.4801 193.47 58.6101 193.47 58.7401 193.34ZM56.5301 153.17C56.5301 153.82 56.5301 154.47 56.5301 155.12C55.7501 154.73 55.7501 154.47 56.5301 153.17ZM49.2501 161.23C49.3801 159.93 49.3801 158.76 49.5101 157.59C49.6401 157.59 49.6401 157.59 49.7701 157.59C49.6401 158.76 49.6401 159.93 49.5101 161.1C49.3801 161.23 49.2501 161.23 49.2501 161.23ZM85.5201 210.89C85.1301 210.89 84.8701 211.02 84.7401 210.89C84.6101 210.89 84.3501 210.76 84.2201 210.5L84.3501 210.24C84.6101 210.24 84.8701 210.11 85.0001 210.24C85.2601 210.37 85.2601 210.63 85.5201 210.89ZM49.1201 212.06C49.2501 212.06 49.5101 212.06 49.7701 211.93C49.6401 212.58 49.3801 213.23 49.1201 213.88C48.7301 213.23 49.1201 212.71 49.1201 212.06ZM55.8801 197.63C55.7501 197.24 55.6201 196.72 55.4901 196.33C56.0101 196.59 56.4001 196.98 56.2701 197.63C56.1401 197.63 56.0101 197.63 55.8801 197.63ZM56.6601 198.02C56.2701 198.54 56.1401 198.8 56.0101 199.19C55.3601 198.28 55.3601 198.15 56.6601 198.02ZM82.6601 210.37C83.1801 210.76 83.4401 211.02 83.1801 211.41C83.0501 211.54 82.7901 211.54 82.6601 211.54C82.1401 211.15 82.5301 210.76 82.6601 210.37ZM90.4601 190.35C90.8501 190.74 90.8501 191.13 90.7201 191.65C90.2001 190.87 90.2001 190.87 90.4601 190.35ZM58.4801 175.4C58.4801 175.01 58.4801 174.62 58.6101 174.23C58.6101 174.36 58.7401 174.36 58.8701 174.36C58.8701 174.62 58.8701 175.01 58.8701 175.4C58.7401 175.4 58.6101 175.4 58.4801 175.4ZM57.9601 212.19C58.2201 212.58 58.3501 212.84 58.2201 212.84C58.0901 212.97 57.8301 213.1 57.4401 213.1C57.5701 212.97 57.7001 212.71 57.9601 212.19ZM56.5301 211.28C56.2701 211.15 56.1401 210.89 55.8801 210.76C56.0101 210.63 56.2701 210.5 56.2701 210.5C56.4001 210.63 56.5301 210.76 56.7901 211.02C56.6601 211.02 56.5301 211.15 56.5301 211.28ZM81.6201 206.73C81.4901 206.86 81.2301 206.99 81.1001 206.99L80.8401 206.73C80.9701 206.6 81.1001 206.34 81.2301 206.34C81.3601 206.34 81.4901 206.47 81.6201 206.73ZM48.9901 164.35C49.1201 163.83 49.1201 163.31 49.1201 162.92C49.1201 162.92 49.1201 162.92 49.2501 162.92C49.2501 163.31 49.2501 163.83 49.2501 164.35C49.1201 164.35 49.1201 164.35 48.9901 164.35ZM59.5201 206.08C59.3901 205.82 59.3901 205.56 59.3901 205.43C59.3901 205.3 59.5201 205.3 59.5201 205.3C59.6501 205.56 59.7801 205.69 59.9101 205.95C59.7801 205.95 59.6501 206.08 59.5201 206.08ZM81.2301 195.81C81.2301 195.29 81.2301 194.9 81.2301 194.51C81.2301 194.51 81.3601 194.51 81.4901 194.51C81.4901 194.9 81.4901 195.29 81.6201 195.68C81.4901 195.81 81.3601 195.81 81.2301 195.81ZM57.7001 163.83C57.7001 163.57 57.7001 163.18 57.7001 162.92C57.7001 162.92 57.7001 162.92 57.8301 162.79C57.8301 163.18 57.8301 163.44 57.8301 163.83H57.7001ZM48.9901 165.78C48.9901 166.04 48.9901 166.3 48.9901 166.43C48.9901 166.56 48.8601 166.56 48.8601 166.56C48.8601 166.3 48.8601 166.04 48.8601 165.78H48.9901ZM116.09 205.3H116.22C116.35 203.87 116.48 202.57 116.61 201.14C116.74 198.28 116.74 195.55 116.87 192.69C117 190.09 117.26 187.62 117.52 185.02C117.52 184.89 117.65 184.76 117.52 184.5C117.13 181.25 117.78 178 118.17 174.75C118.3 173.45 118.43 172.15 118.43 170.85C118.43 169.42 118.43 167.99 118.43 166.69C118.43 165.13 118.82 163.7 118.69 162.14C118.69 159.8 119.47 157.72 119.86 155.51C120.12 153.69 120.25 152.13 119.34 150.57C118.43 149.27 117.91 147.84 117.13 146.54C116.61 145.76 116.09 144.98 115.18 144.46C114.01 143.94 112.97 143.16 111.8 142.64C110.76 142.25 109.72 141.86 108.81 142.64C108.03 143.16 107.38 143.68 106.73 144.33C105.3 146.15 104.52 148.1 104 150.31C103.87 150.83 103.74 151.35 103.61 152C103.35 153.17 102.83 154.47 102.7 155.64C102.44 158.24 102.31 160.84 102.18 163.31C101.92 166.69 101.79 170.07 101.66 173.58C101.53 176.7 101.4 179.82 101.4 182.94C101.4 186.06 101.53 189.18 101.53 192.17C101.53 192.95 101.4 193.6 101.4 194.25C101.53 196.85 101.66 199.32 101.79 201.79C101.79 204.91 101.92 208.16 101.79 211.28C101.79 213.1 102.05 214.79 102.44 216.35C103.48 216.87 104.26 217.39 105.17 217.91C105.82 216.87 106.86 217.52 107.64 217.52C108.16 216.61 107.12 216.35 106.99 215.7C107.38 215.57 107.64 215.44 108.03 215.31C108.03 215.18 108.03 215.05 108.03 214.92C108.03 214.79 108.03 214.66 108.03 214.27C108.94 215.44 110.63 214.79 111.15 216.61C111.28 216.09 111.41 215.96 111.41 215.83C111.28 215.18 111.8 214.92 112.19 214.92C112.84 214.79 112.97 215.31 113.1 215.83C113.23 216.35 113.36 216.87 113.23 217.39C113.23 218.04 113.49 218.43 114.01 218.69C114.66 218.17 115.05 217.52 114.79 216.74C114.66 216.22 114.27 215.83 114.01 215.44C113.49 214.92 113.1 214.53 112.97 213.62C113.49 213.75 113.88 213.62 114.14 213.75C114.53 213.88 114.79 214.14 115.05 214.4C115.18 213.49 114.92 212.84 114.4 212.32C113.36 211.54 112.84 210.37 112.45 209.46C112.58 208.68 112.84 208.03 112.71 207.64C112.32 206.86 112.45 206.08 112.71 205.17C113.62 206.34 114.01 207.77 113.75 209.07C113.49 210.37 114.4 211.02 114.79 211.93C114.92 211.54 115.05 211.28 115.05 210.89C115.05 208.68 114.92 206.47 114.79 204.26C114.79 202.31 114.66 200.36 115.05 198.41C115.05 198.15 115.31 197.63 115.18 197.37C114.66 196.33 114.79 195.42 114.79 194.38C114.79 191.78 114.4 189.31 114.79 186.71C114.79 186.58 114.92 186.45 114.79 186.19C114.27 182.81 114.79 179.43 114.79 176.05C114.79 174.62 114.79 173.19 114.79 171.63C114.66 170.2 115.18 168.77 114.92 167.21C114.66 165 114.66 162.66 114.53 160.32C114.53 159.67 114.4 159.15 113.88 158.63C113.75 158.5 113.75 158.24 113.62 158.11C112.97 156.03 112.84 153.95 113.1 151.87C113.23 151.35 113.36 151.09 113.88 151.09C114.53 151.87 115.05 152.65 114.79 153.69C114.53 154.73 115.05 155.77 114.4 156.68C114.27 156.81 114.4 157.07 114.4 157.33C114.53 158.24 114.92 159.15 115.05 160.06C115.31 162.53 115.44 165 115.57 167.6C115.57 168.38 115.31 169.29 115.57 170.2C115.7 170.46 115.57 170.59 115.57 170.85C115.57 172.93 115.44 175.01 115.44 177.22C115.44 180.08 115.7 183.07 115.57 185.93C115.57 190.35 115.83 194.64 115.44 198.93C115.96 200.49 115.7 202.18 115.83 203.61C115.96 204.26 115.96 204.78 116.09 205.3ZM113.49 166.82C113.49 179.43 113.49 191.91 113.49 204.52C112.71 204.78 112.45 204.39 112.32 203.87C112.19 203.48 112.19 202.7 112.45 202.44C112.97 201.92 112.58 201.53 112.58 201.01C112.45 199.97 112.32 198.93 112.32 197.89C112.19 197.24 112.19 196.46 112.19 195.68C112.19 195.16 112.32 194.51 112.45 193.99C112.45 193.73 112.58 193.47 112.58 193.21C112.58 191.39 112.58 189.7 112.58 187.88C112.58 187.23 112.84 186.45 112.58 186.06C112.19 185.54 112.32 185.02 112.45 184.5C112.45 184.11 111.67 183.85 112.19 183.33C112.45 183.07 112.45 182.55 112.45 182.03C112.45 181.64 112.58 181.25 112.71 180.73C112.84 180.34 112.71 179.69 112.58 179.3C111.8 176.96 112.32 174.62 112.32 172.28C112.97 170.85 112.58 169.16 112.97 167.73C112.97 167.34 113.1 167.08 113.23 166.82C113.36 166.82 113.36 166.82 113.49 166.82ZM105.69 206.99C105.56 203.61 105.43 200.1 105.43 196.59C105.56 196.59 105.56 196.59 105.69 196.59C105.82 199.84 106.08 202.96 106.21 206.08C106.21 206.34 105.95 206.73 105.82 207.12C105.82 206.99 105.69 206.99 105.69 206.99ZM114.27 135.75C115.44 135.49 116.48 134.97 117.52 135.1C119.73 135.23 121.42 133.93 123.11 132.89C123.63 132.5 123.89 131.98 123.63 131.33C122.85 128.99 121.81 127.04 119.6 125.87C117.26 124.83 114.66 124.18 112.06 123.79C110.24 123.66 108.55 123.79 106.73 124.05C105.69 124.18 104.65 123.92 104.52 125.35C104.52 125.74 103.87 126.13 103.74 126.52C103.61 127.17 103.35 127.82 102.96 128.34C102.57 128.86 102.57 129.25 102.7 129.77C103.22 131.33 104.26 132.37 105.56 133.28C105.56 133.41 105.56 133.54 105.56 133.54C105.3 133.67 105.17 133.8 104.91 133.93C104.91 134.32 105.04 134.84 105.04 135.1C105.95 135.75 106.86 136.14 107.9 136.01C108.42 136.01 108.94 136.01 109.33 135.88C110.37 135.75 111.54 135.62 112.45 135.36C113.62 134.97 113.62 134.84 114.27 135.75ZM111.54 132.89C112.71 132.5 113.88 132.11 115.31 132.11C115.18 132.76 114.79 133.15 114.27 133.15C113.36 133.15 112.45 133.15 111.54 133.15C111.54 133.02 111.54 133.02 111.54 132.89ZM115.83 131.59C116.48 131.85 116.87 132.11 117.52 132.37C116.61 133.02 116.09 132.76 115.83 131.59ZM111.15 128.47C112.45 128.34 112.45 128.34 113.23 129.38C112.32 128.99 111.8 128.73 111.15 128.47ZM111.41 134.19C111.93 134.19 112.32 134.06 112.45 134.58C112.45 134.71 112.19 134.97 112.06 134.97C111.54 135.1 111.41 134.71 111.41 134.19ZM115.31 134.45C115.31 134.06 115.05 133.8 115.44 133.54C115.57 133.54 115.7 133.54 115.83 133.67C115.96 133.93 115.83 134.32 115.31 134.45ZM142.276 214.14C141.496 214.27 140.846 214.14 140.196 213.36C139.936 212.84 139.286 212.71 138.766 212.45C139.026 212.71 139.286 212.97 139.546 213.36C139.416 213.36 139.416 213.49 139.416 213.49C139.026 213.36 138.636 213.1 137.986 212.84C138.376 212.58 138.636 212.58 138.766 212.45C137.206 211.93 136.166 211.02 134.736 210.24C135.256 209.72 135.646 209.33 136.166 208.81C137.336 209.07 136.816 210.11 136.946 210.63C138.766 211.8 140.586 213.1 142.276 214.27C143.056 214.01 142.796 213.36 142.926 212.97C142.926 212.45 142.926 211.93 142.926 211.41C142.926 210.24 143.056 208.94 143.186 207.64C143.186 207.25 143.056 206.73 143.056 206.21C143.056 204.91 143.186 203.48 143.186 202.18C143.186 200.62 143.056 199.19 143.056 197.63C142.926 196.07 143.056 194.64 143.056 193.21C142.666 188.66 143.186 184.11 143.316 179.56C143.316 177.22 143.576 175.01 143.706 172.67C143.706 169.42 143.706 166.3 143.706 163.05C143.706 162.66 143.966 162.14 144.096 161.75C144.616 160.19 145.916 158.89 146.956 157.59C147.996 156.29 150.206 156.03 151.636 156.94C153.066 157.85 153.716 159.28 153.716 160.97C153.586 163.96 153.456 167.08 153.326 170.2C153.196 171.89 153.976 173.58 153.846 175.27C153.586 176.96 153.846 178.26 153.716 179.95C153.196 183.07 153.586 186.45 153.196 189.57C153.066 190.48 152.936 191.52 152.806 192.43C152.806 195.42 152.806 198.28 152.806 201.27C152.806 205.69 153.196 210.11 152.806 214.53C152.936 215.18 152.936 215.83 153.066 216.35C153.326 217.26 153.846 218.17 154.886 218.69C156.186 219.34 157.486 219.99 158.916 220.12C160.606 220.25 162.166 220.25 163.726 220.38C165.286 220.51 166.196 219.86 166.976 218.95C168.016 217.65 168.406 215.96 168.406 214.27C168.406 213.23 168.406 212.19 168.796 211.15C168.926 210.89 169.056 210.5 169.056 210.24C169.056 208.55 169.056 206.99 169.186 205.43C169.186 202.7 169.316 199.97 169.186 197.24C168.926 194.77 169.316 192.43 169.446 189.96C169.706 187.23 170.486 184.5 171.136 181.77C171.526 180.34 170.876 178.78 171.266 177.35C171.526 176.18 171.266 175.14 171.266 173.97C171.396 171.5 171.136 168.9 171.396 166.56C171.656 163.7 171.656 160.84 170.746 157.98C170.486 157.07 170.096 156.03 169.706 155.12C168.926 152.91 167.756 150.83 165.936 149.4C165.026 148.62 163.986 147.97 163.076 147.32C161.906 146.41 160.736 145.37 159.436 144.59C157.876 143.55 156.056 142.9 153.976 142.77C152.676 142.64 151.376 142.64 150.076 142.38C147.606 142.12 145.266 142.38 143.316 143.81C143.056 144.07 142.796 144.2 142.536 144.33C141.106 144.98 140.846 144.98 139.806 143.94C139.286 143.42 138.766 142.77 138.376 142.25C137.466 141.08 136.816 139.78 135.256 139.39C134.866 139.78 134.476 140.17 134.086 140.43C132.786 141.47 131.486 142.51 130.186 143.55C129.926 143.68 129.666 143.94 129.536 144.2C128.626 145.5 128.106 146.67 128.106 148.36C128.236 150.96 128.106 153.69 128.236 156.42C128.236 159.15 128.496 161.75 128.626 164.35C128.626 166.43 128.496 168.51 128.626 170.59C128.886 172.41 128.236 174.1 128.366 176.05C128.366 176.7 128.236 177.48 128.236 178.26C128.106 181.51 128.106 184.63 128.106 187.75C128.106 189.18 128.106 190.61 127.846 192.04C127.326 194.38 127.456 196.85 127.326 199.19C127.196 201.4 127.196 203.48 127.066 205.56C126.936 207.64 126.676 209.85 126.546 211.93C126.546 212.71 126.936 213.75 127.326 214.53C127.716 215.31 127.976 216.09 127.586 217C128.366 217.26 129.146 217.39 129.796 217.65C130.446 216.61 130.706 216.48 131.616 217.13C132.266 217.52 132.916 218.04 133.566 218.17C135.516 218.3 137.466 218.17 139.416 217.52C139.936 217.26 140.456 217.26 140.976 217.13C141.496 217 142.016 217 142.406 216.74C142.926 216.48 142.796 215.96 142.276 215.7C142.016 215.44 141.496 215.57 141.366 214.79C141.756 215.05 142.146 215.18 142.666 215.31C142.536 214.79 142.406 214.53 142.276 214.14ZM161.256 168.51C160.346 168.38 160.476 167.6 160.476 167.08C160.476 166.17 160.736 165.13 160.996 164.09C161.646 164.87 161.776 165.65 161.256 166.43C161.126 166.56 161.126 166.95 161.126 167.21C161.126 167.6 161.126 168.12 161.256 168.51C161.776 167.99 161.386 167.21 161.646 166.56C161.776 166.43 161.906 166.17 162.036 165.65C162.036 167.34 162.036 168.64 162.036 170.07C161.646 170.07 161.386 170.07 161.126 170.07C161.126 169.42 161.126 168.9 161.256 168.51ZM164.116 171.24C163.986 170.98 163.856 170.85 163.726 170.59C164.116 170.46 164.376 170.46 164.766 170.33C164.636 170.59 164.636 170.85 164.636 171.11C164.636 171.63 164.896 172.15 164.766 172.8C164.636 174.23 166.716 175.79 166.456 177.22C166.326 179.04 166.326 180.99 166.196 182.68C166.066 183.85 165.806 185.02 165.806 186.19C165.676 186.58 165.676 186.97 165.676 187.36C165.546 187.36 165.546 187.36 165.416 187.49C165.416 186.84 165.156 186.19 165.286 185.67C165.156 183.72 165.156 181.9 165.416 180.08C165.286 179.56 165.546 179.04 165.806 178.65C166.196 177.61 166.066 176.44 166.066 175.27C165.936 173.97 163.986 172.54 164.116 171.37C163.856 171.37 163.466 171.37 163.336 171.76C163.206 172.41 165.416 173.19 165.286 173.84C165.156 174.36 165.026 174.88 164.896 175.66C164.636 175.4 164.376 175.4 164.376 175.27C164.246 174.36 161.906 173.45 162.166 172.54C162.556 171.37 162.686 171.5 162.556 170.46C163.336 170.2 163.596 171.11 164.116 171.24ZM138.506 162.01C138.376 162.4 138.246 162.92 138.116 163.44C137.986 163.31 137.986 163.31 137.856 163.31C137.726 162.66 137.986 162.27 138.506 162.01C138.766 161.49 138.896 160.97 139.286 160.58C140.326 159.54 141.366 158.63 142.536 157.72C142.926 157.33 143.446 157.2 144.096 157.2C142.666 158.63 142.666 160.45 141.886 162.01C141.626 162.66 141.366 162.66 140.846 162.27C141.366 161.36 141.756 160.45 142.276 159.54C142.146 159.54 142.146 159.54 142.016 159.41C141.886 159.54 141.756 159.67 141.626 159.8C141.236 160.32 140.976 160.71 140.586 161.23C140.326 161.62 139.936 162.01 139.286 161.75C139.156 161.62 138.766 161.88 138.506 162.01ZM161.776 208.42C161.906 208.55 161.906 208.81 162.036 208.94L161.906 209.07C161.646 208.94 161.256 208.94 160.996 208.68C160.736 208.16 160.346 207.51 160.086 206.86C160.086 206.6 160.086 206.47 159.826 206.34C159.566 206.08 159.306 205.69 159.046 205.43C159.696 203.74 159.826 201.92 159.826 200.1C159.956 198.41 159.826 196.59 159.826 194.9C159.956 194.9 159.956 194.9 160.086 194.9C160.216 195.03 160.216 195.03 160.216 195.16C160.346 196.59 160.346 198.15 160.476 199.71C161.256 197.76 160.476 195.94 160.346 193.99C160.346 194.12 160.216 194.25 160.086 194.38C159.696 193.86 159.566 192.82 159.956 190.87C160.216 191.13 160.476 191.39 160.606 191.65C160.996 190.74 160.736 189.96 159.826 189.7C160.086 187.36 159.436 185.15 160.216 182.94C160.346 183.2 160.476 183.33 160.476 183.46C160.476 184.63 160.476 185.8 160.346 186.97C160.346 187.36 160.476 187.75 160.606 188.14C160.866 188.14 160.996 188.01 161.256 188.01C161.386 192.95 161.646 198.02 161.646 202.96C161.646 202.96 161.516 203.09 161.386 203.09C161.776 204.78 162.166 206.6 162.686 208.55C162.166 208.42 162.036 208.42 161.776 208.42ZM163.596 183.85C163.856 186.06 163.726 188.27 163.986 190.35C164.246 189.31 164.116 188.14 164.506 186.84C164.636 187.23 164.766 187.36 164.766 187.49C164.506 188.79 164.636 189.96 165.156 191.26C165.416 191.78 165.416 192.56 164.896 193.21C164.766 193.6 164.506 194.25 165.156 194.77V194.9C163.986 195.68 165.026 196.59 165.156 197.5C165.156 197.63 165.156 197.76 165.286 198.02C165.286 198.8 165.286 199.71 165.416 200.49C165.676 202.31 165.676 204.13 165.416 206.08C165.416 206.99 165.676 207.9 165.676 208.81C165.676 209.07 165.676 209.33 165.416 209.59C164.246 207.9 163.076 206.08 163.336 203.87C163.726 201.27 163.596 198.8 163.206 196.2C163.076 195.81 163.206 195.42 163.206 195.16C163.206 194.64 163.336 194.12 163.336 193.6C163.076 191.91 163.076 190.09 163.336 188.4C163.336 187.75 163.076 187.23 163.076 186.58C163.206 185.67 163.206 184.76 163.336 183.85C163.466 183.85 163.596 183.85 163.596 183.85ZM137.856 176.7C138.766 178 139.026 189.7 138.376 191.13C137.986 189.96 137.726 188.92 137.726 187.75C137.726 185.41 137.726 182.94 137.856 180.6C137.856 179.69 137.726 178.78 137.856 177.87C137.856 177.48 137.856 177.09 137.856 176.7ZM138.896 166.3C139.676 166.95 139.806 167.47 139.676 168.12C139.546 169.16 139.676 170.2 139.806 171.24C139.936 174.1 140.066 176.96 140.066 179.82C140.066 180.34 139.936 180.86 139.806 181.51C139.026 180.6 139.416 179.69 139.416 178.91C139.286 178.13 139.156 177.35 139.156 176.44C139.026 175.66 139.156 174.75 139.156 173.97C139.026 173.06 139.026 172.28 139.026 171.5C139.026 170.59 139.026 169.81 138.896 168.9C138.766 168.12 138.636 167.34 138.896 166.3ZM139.676 194.25C139.806 194.51 140.066 194.64 140.066 194.9C140.196 195.42 140.196 196.07 140.066 196.46C139.936 197.24 139.936 197.76 140.196 198.41C140.456 199.06 139.546 199.58 140.196 200.23C139.676 201.27 140.326 202.44 140.066 203.61C139.936 204 139.936 204.39 139.806 204.91C139.156 204.65 139.026 204.26 139.026 203.74C139.026 202.44 138.766 201.14 139.156 199.84C139.286 199.45 139.286 199.06 139.286 198.54C139.286 198.54 139.156 198.41 139.156 198.28C139.286 197.63 139.546 197.11 139.546 196.46C139.546 195.68 139.416 195.03 139.286 194.38C139.416 194.38 139.546 194.25 139.676 194.25ZM163.986 182.68C163.726 182.29 163.466 182.03 163.596 181.77C163.856 179.82 164.246 177.87 164.506 175.92C164.896 175.79 165.026 176.18 165.026 176.57C165.026 177.61 164.766 178.78 164.636 179.82C164.766 179.95 164.636 180.08 164.766 180.21C165.026 181.12 164.506 181.9 163.986 182.68ZM163.596 170.07C163.076 169.16 162.816 168.64 163.336 167.86C163.466 167.47 163.336 166.82 163.336 166.3C163.206 165.78 163.466 165.65 163.986 165.39C164.116 166.04 164.246 166.56 164.246 167.21C164.116 168.12 163.856 168.9 163.596 170.07ZM139.806 211.02C140.066 209.33 140.326 207.9 140.586 206.47C140.716 206.47 140.716 206.6 140.846 206.6C140.846 207.25 140.846 207.77 140.846 208.42C140.846 209.07 140.846 209.72 140.716 210.24C140.716 210.5 140.586 210.89 140.326 211.02C140.196 211.15 139.936 211.02 139.806 211.02ZM136.296 206.08C135.126 205.43 134.736 204.52 134.736 203.22C135.386 204.13 136.426 204.78 136.296 206.08ZM139.936 187.36C140.456 188.53 139.546 189.57 139.806 190.61C139.156 189.7 139.156 188.27 139.936 187.36ZM163.986 164.87C163.726 163.83 163.206 162.79 163.856 161.62C164.376 162.66 164.116 163.83 163.986 164.87ZM139.806 187.23C139.416 186.32 139.416 185.67 139.806 184.89C140.456 185.54 140.456 186.45 139.806 187.23ZM160.086 182.55C160.216 181.64 159.956 180.73 160.476 179.95C160.606 179.95 160.736 179.95 160.866 179.95C160.606 180.86 160.476 181.77 160.346 182.55C160.216 182.55 160.086 182.55 160.086 182.55ZM140.196 184.24C139.156 183.85 139.156 183.85 139.806 182.42C139.936 183.2 140.066 183.72 140.196 184.24ZM160.996 186.19C160.996 185.28 160.996 184.5 161.126 183.72C161.516 183.98 161.516 185.02 160.996 186.19ZM160.606 170.33C159.956 169.81 159.696 169.42 160.216 168.77C160.866 169.16 160.606 169.68 160.606 170.33ZM157.096 208.55C157.096 207.64 157.096 206.99 156.966 206.08C157.486 207.12 157.486 207.64 157.096 208.55ZM139.416 206.47C139.936 206.99 140.196 207.51 140.066 208.29C139.546 207.77 139.286 207.25 139.416 206.47ZM133.046 198.8C133.046 199.58 133.046 200.1 133.046 200.75C132.396 200.1 132.786 199.58 133.046 198.8ZM160.606 178.26C160.606 178.65 161.126 179.17 160.736 179.56C160.606 179.56 160.476 179.56 160.346 179.43C160.476 179.04 160.476 178.65 160.606 178.26ZM162.296 174.49C162.166 174.75 162.166 175.14 162.166 175.53C162.036 175.4 161.776 175.4 161.776 175.27C161.776 175.01 161.906 174.75 161.906 174.36C162.036 174.49 162.166 174.49 162.296 174.49ZM165.936 210.37C165.936 210.89 165.936 211.15 165.936 211.67C165.416 211.28 165.416 210.89 165.936 210.37ZM162.686 213.49C163.076 213.75 163.336 213.88 163.596 214.01C163.596 214.01 163.596 214.14 163.596 214.27C163.206 214.01 162.946 213.88 162.556 213.75C162.686 213.62 162.686 213.62 162.686 213.49ZM164.246 191C164.116 191 163.986 191 163.856 191C163.856 191.26 163.856 191.65 163.726 191.91C163.856 191.91 163.856 192.04 163.986 192.04C163.986 191.65 164.116 191.26 164.246 191ZM160.476 204C160.476 203.22 160.476 202.57 160.476 201.92C160.346 202.57 159.696 203.22 160.476 204ZM160.086 205.04C160.216 206.21 160.216 206.21 160.996 205.95C160.736 205.69 160.476 205.43 160.086 205.04ZM161.776 208.42C161.906 208.03 162.036 207.64 161.516 207.25C161.646 207.77 161.776 208.03 161.776 208.42ZM192.519 124.7C191.349 124.7 190.179 124.83 189.009 124.7C188.229 124.57 187.449 124.7 186.669 125.09C183.549 126.39 181.339 128.99 181.469 132.76C181.469 134.71 181.339 136.66 181.209 138.61C181.209 139.26 181.209 139.78 181.209 140.43C181.209 143.42 181.209 146.28 181.209 149.14C181.079 151.22 180.819 153.17 180.819 155.25C180.689 156.29 180.819 157.33 180.689 158.37C180.429 160.45 180.169 162.53 179.909 164.74C179.649 167.47 179.389 170.2 179.129 172.93C178.999 174.75 178.999 176.44 178.869 178.13C178.609 181.38 178.349 184.63 178.219 187.75C178.089 192.04 178.089 196.33 178.089 200.49C178.089 201.53 178.089 202.57 178.219 203.48C178.349 205.82 178.479 208.16 178.609 210.5C178.739 212.32 178.739 214.27 178.999 216.09C179.129 216.87 179.259 217.65 178.869 218.43C179.259 218.95 179.519 219.47 180.429 219.08C180.559 218.95 180.949 219.21 181.209 219.21C181.469 219.34 181.599 219.34 182.119 219.47C181.599 218.69 181.469 218.17 181.859 217.52C181.339 216.48 181.859 215.7 182.119 214.79C182.509 214.14 182.769 213.62 182.509 212.58C183.029 212.71 183.549 212.71 183.679 212.97C184.069 213.62 184.719 214.01 184.979 214.53C185.499 215.7 186.409 216.35 187.579 216.87C186.929 216.09 186.409 215.31 185.889 214.4C186.279 214.4 186.539 214.53 186.799 214.66C187.059 214.66 187.319 214.79 187.579 214.79C187.709 214.79 187.709 214.66 187.839 214.66C187.449 214.14 187.059 213.75 186.539 213.23C188.619 212.71 188.749 212.84 189.139 214.4C189.659 213.62 189.789 213.62 190.179 214.4C190.309 214.53 190.439 214.79 190.699 215.05C190.699 215.05 190.829 215.05 190.829 214.92C190.569 214.14 190.309 213.23 190.049 212.45C190.309 212.32 190.439 212.32 190.569 212.19C191.609 211.67 191.739 211.8 191.869 212.97C192.129 214.53 192.259 215.96 192.909 217.39C193.169 217.91 193.169 218.43 193.299 218.95C192.129 219.6 192.129 219.86 193.039 220.9C193.689 220.51 193.819 219.86 193.819 219.21C193.819 218.95 193.819 218.56 193.949 218.3C194.209 216.09 194.469 213.88 194.339 211.67C194.209 210.11 194.599 208.68 194.729 207.12C194.729 206.08 194.599 204.91 194.599 203.87C194.469 202.83 194.339 201.66 194.599 200.23C195.119 200.75 195.379 201.01 195.509 201.27C196.679 202.83 197.589 204.52 198.759 206.08C199.279 206.86 199.799 207.51 200.449 208.16C201.229 208.81 202.009 209.46 202.659 210.11C203.309 210.89 203.699 211.8 204.219 212.71C204.479 213.1 204.739 213.49 204.999 213.75C205.649 214.53 206.169 215.31 206.819 216.09C207.989 217.39 208.639 219.08 210.329 219.99C210.589 220.25 210.719 220.9 210.849 221.29C211.239 221.29 211.629 221.29 212.019 221.42C212.669 221.81 213.189 221.81 213.839 221.55C214.489 221.29 215.139 221.29 215.789 221.55C217.869 221.94 220.079 222.07 222.289 221.55C223.459 221.29 224.109 220.64 223.979 219.73C223.849 219.47 223.719 219.34 223.589 219.08C224.889 218.43 225.019 217.78 224.499 216.61C223.849 214.79 223.199 213.1 222.289 211.41C221.509 209.72 220.599 208.03 219.559 206.47C218.779 205.3 217.739 204.13 216.829 202.96C215.919 201.92 215.009 200.88 214.359 199.58C213.839 198.28 213.059 197.24 212.279 196.07C211.629 195.16 211.109 194.12 210.459 193.08C209.809 191.91 209.159 190.61 208.379 189.44C206.819 187.1 205.259 184.89 203.699 182.68C203.309 182.03 202.919 181.38 203.049 180.86C203.439 180.34 203.699 180.08 203.959 179.82C205.129 178.65 206.169 177.35 207.079 176.05C209.419 173.06 211.629 170.07 213.969 167.08C215.139 165.65 216.179 164.09 217.349 162.53C218.909 160.45 220.599 158.24 222.029 156.03C222.939 154.73 223.589 153.3 224.369 152C225.279 150.83 225.799 149.53 225.929 148.1C225.929 147.32 226.059 146.41 225.409 145.89C224.239 144.59 222.809 143.55 220.989 143.55C220.599 143.55 220.339 143.55 220.079 143.42C218.259 143.03 216.569 142.9 215.009 144.2C215.009 144.2 214.879 144.33 214.749 144.33C213.319 144.85 212.279 145.89 211.629 147.32C211.239 147.97 210.979 148.62 210.459 149.14C208.899 151.22 207.339 153.17 205.779 155.12C203.699 157.59 201.749 160.06 199.669 162.4C198.889 163.44 198.109 164.61 197.199 165.65C196.679 166.43 195.899 167.08 194.729 166.95C194.859 166.17 194.859 165.52 194.989 164.87C195.119 163.18 195.379 161.49 195.509 159.8C195.769 158.37 195.769 156.81 195.769 155.38C195.899 154.08 196.159 152.65 196.289 151.22C196.419 149.79 196.549 148.36 196.679 146.93C196.809 144.85 197.069 142.77 197.329 140.69C197.329 140.43 197.459 140.04 197.459 139.78C197.459 138.09 197.849 136.53 197.589 134.97C197.329 133.28 196.549 131.85 195.509 130.42C194.989 129.64 194.599 128.73 194.209 127.95C193.819 126.65 193.429 125.48 192.519 124.7ZM209.809 211.54C210.719 211.93 211.369 212.58 210.979 213.88C210.589 212.97 210.199 212.19 209.809 211.41C209.159 211.15 208.899 210.63 208.509 210.11C209.419 210.37 209.549 210.37 209.809 211.54ZM211.889 207.64C211.369 207.12 210.719 206.73 210.719 205.95C210.719 205.82 210.719 205.69 210.719 205.69C209.809 205.3 209.679 204.52 209.289 203.74C208.769 202.7 207.989 201.66 207.339 200.62C206.559 199.58 205.779 198.54 204.999 197.37C204.739 196.98 204.609 196.59 204.479 196.2C206.039 197.76 207.209 199.71 208.509 201.53C209.809 203.35 211.109 205.17 212.539 206.99C212.279 207.25 212.019 207.38 211.759 207.64C213.189 207.38 213.579 207.77 214.229 209.46C212.929 209.33 212.669 208.16 211.889 207.64ZM181.859 189.44C182.249 190.74 181.729 192.17 181.729 193.6C181.859 195.03 181.729 196.46 181.859 197.89C181.859 199.32 181.989 200.75 181.989 202.18C181.989 203.61 181.989 205.04 181.989 206.73C182.249 206.34 182.379 206.08 182.509 205.95C183.029 205.69 183.549 205.82 183.549 206.34C183.679 206.86 183.549 207.38 183.549 207.77C183.289 209.46 183.289 209.72 183.809 211.28C183.289 211.54 182.899 211.28 182.899 210.89C182.899 210.11 182.509 209.59 181.989 209.07C181.469 208.81 181.209 208.03 181.209 207.38C181.209 205.17 181.469 203.09 181.469 200.88C181.469 199.32 181.339 197.89 181.339 196.33C181.339 195.42 181.339 194.38 181.339 193.47C181.469 192.04 181.469 190.74 181.469 189.44C181.599 189.44 181.729 189.44 181.859 189.44ZM219.559 214.79C218.389 213.88 217.479 212.71 215.789 212.58C217.739 211.15 219.169 212.19 219.559 214.79ZM215.399 150.18C215.269 150.05 215.009 149.79 214.879 149.66C215.139 149.14 216.439 148.49 216.829 148.75C217.479 149.4 218.259 149.14 219.039 149.01C218.259 149.79 218.129 149.92 217.349 150.05C216.699 150.05 216.049 150.18 215.399 150.18ZM217.739 153.17C217.609 152.91 217.479 152.52 217.219 152.26C218.259 151.74 219.039 150.7 220.469 150.96C219.689 152 219.169 153.04 217.739 153.17ZM188.489 208.16C188.229 207.9 188.099 207.77 188.099 207.64C188.099 206.47 188.099 205.43 188.099 204.39C188.099 204.26 188.229 204.13 188.229 203.87C188.489 204 188.879 204.13 188.879 204.26C189.139 205.56 189.139 206.73 188.489 208.16ZM223.069 150.31C222.679 150.7 222.159 151.09 221.639 151.48C221.509 151.61 221.119 151.35 220.859 151.35C220.859 150.96 220.859 150.57 221.119 150.44C221.639 149.92 222.289 150.05 223.069 150.31ZM221.509 218.43C220.469 218.17 219.429 218.43 218.649 217.52C220.469 217 220.469 217 221.509 218.43ZM181.729 183.33C182.249 184.76 182.119 186.58 181.599 187.49C181.599 186.19 181.729 184.76 181.729 183.33ZM216.829 216.87C216.179 216.48 215.399 216.22 214.359 215.83C215.659 215.44 216.309 216.22 216.829 216.87ZM219.559 218.69C220.339 218.69 220.859 218.56 221.119 219.34C220.599 219.47 219.949 219.6 219.559 218.69ZM187.059 201.79C186.929 201.27 186.929 200.62 186.929 200.1C187.189 200.62 187.709 201.14 187.319 201.79C187.189 201.79 187.059 201.79 187.059 201.79ZM181.859 181.9C181.989 181.12 181.989 180.34 181.989 179.56C182.119 179.56 182.119 179.56 182.249 179.56C182.249 180.34 182.249 181.12 182.249 181.9C182.119 181.9 181.989 181.9 181.859 181.9ZM213.319 216.74C213.319 217.26 213.319 217.52 213.189 217.91C212.929 217.91 212.539 217.78 211.889 217.65C212.539 217.26 212.799 217 213.319 216.74ZM216.569 207.9C216.179 208.29 215.659 208.55 215.139 208.94C215.789 207.9 215.789 207.9 216.569 207.9ZM183.159 165C183.159 164.61 183.159 164.35 183.289 164.09C183.419 164.09 183.549 164.09 183.679 164.09C183.549 164.35 183.549 164.74 183.549 165C183.419 165 183.289 165 183.159 165ZM206.169 206.47C206.429 206.73 206.559 206.86 206.819 207.12C206.169 206.99 206.169 206.99 206.169 206.47ZM222.159 217.65C222.679 217.91 222.809 217.91 222.939 217.91C223.199 218.04 223.329 218.17 223.329 218.3C222.939 218.43 222.549 218.43 222.159 217.65ZM182.379 176.7C182.379 176.18 182.379 176.05 182.379 175.79C182.379 175.79 182.379 175.79 182.509 175.79C182.509 175.79 182.639 175.92 182.639 176.05C182.639 176.18 182.509 176.31 182.379 176.7Z" fill="#39A2DB"/>
</svg>
