<?xml version="1.0" encoding="UTF-8" standalone="no"?>
<!DOCTYPE svg PUBLIC "-//W3C//DTD SVG 1.1//EN" "http://www.w3.org/Graphics/SVG/1.1/DTD/svg11.dtd">
<svg xmlns="http://www.w3.org/2000/svg" xmlns:xlink="http://www.w3.org/1999/xlink" version="1.1" width="1500pt" height="1500pt" viewBox="0 0 1500 1500">
<g enable-background="new">
<g id="Layer-1" data-name="Layer 1">
<clipPath id="cp0">
<path transform="matrix(1,0,0,-1,0,1500)" d="M 0 1500 L 1500 1500 L 1500 0 L 0 0 Z "/>
</clipPath>
<g clip-path="url(#cp0)">
<path transform="matrix(1,0,0,-1,741.3922,848.0728)" d="M 0 0 L -63.276 0 L -146.695 215.203 L -103.629 215.203 C -88.213 215.203 -74.548 205.283 -69.772 190.626 L -31.032 71.735 L 7.341 190.539 C 12.09 205.24 25.777 215.203 41.226 215.203 L 83.416 215.203 Z " fill="#0779be"/>
<path transform="matrix(1,0,0,-1,1208.431,679.6182)" d="M 0 0 L 0 46.748 L -61.257 46.748 L -61.257 99.945 L -123.317 99.945 L -123.317 46.748 L -208.644 46.748 C -191.888 35.093 -178.746 19.233 -170.107 0 L -123.317 0 L -123.317 -96.72 C -123.317 -118.483 -119.692 -133.394 -110.827 -146.29 C -98.676 -164.318 -78.091 -172.749 -51.766 -173.203 L -51.766 -173.291 L -16.081 -173.291 C -7.2 -173.291 0 -166.091 0 -157.21 L 0 -119.692 L -39.09 -119.692 C -52.388 -119.692 -61.257 -113.647 -61.257 -97.123 L -61.257 0 Z " fill="#0779be"/>
<path transform="matrix(1,0,0,-1,438.335,632.8701)" d="M 0 0 L -.003 -.015 C -22.406 -.17 -42.827 -14.359 -55.808 -35.603 L -55.808 -.015 L -116.335 -.015 L -116.335 -199.121 C -116.335 -208.003 -109.135 -215.203 -100.254 -215.203 L -55.808 -215.203 L -55.808 -113.14 C -55.808 -81.888 -37.215 -60.717 -11.897 -60.717 L 32.252 -60.717 L 32.252 0 Z " fill="#0779be"/>
<path transform="matrix(1,0,0,-1,869.3069,722.5654)" d="M 0 0 L 0 7.668 L 8.866 7.668 C 9.376 10.68 10.162 13.59 11.199 16.386 L 3.523 20.818 L 11.655 34.902 L 19.296 30.491 C 21.225 32.817 23.367 34.959 25.693 36.888 L 21.281 44.529 L 35.366 52.66 L 39.798 44.984 C 42.594 46.021 45.504 46.808 48.516 47.318 L 48.516 56.184 L 64.779 56.184 L 64.779 47.318 C 67.792 46.808 70.701 46.021 73.497 44.984 L 77.929 52.66 L 92.014 44.529 L 87.603 36.888 C 89.928 34.959 92.071 32.817 94 30.491 L 101.64 34.902 L 109.772 20.818 L 102.096 16.386 C 103.134 13.59 103.92 10.68 104.429 7.668 L 113.295 7.668 L 113.295 0 L 104.429 0 L 8.866 0 Z M 211.107 -113.442 C 204.314 -103.558 199.992 -92.464 197.777 -79.081 L 62.368 -79.081 C 32.003 -79.081 11.103 -64.884 9.136 -36.097 L 160.557 -36.097 C 160.952 -31.365 161.742 -24.661 161.742 -17.958 C 161.742 -.738 158.788 15.044 153.18 28.925 L 151.691 32.24 C 144.514 48.217 133.781 61.25 119.792 70.98 L 114.739 74.495 C 98.477 84.262 78.352 89.695 54.875 89.695 C -14.92 89.695 -55.536 41.981 -55.536 -21.507 C -55.536 -83.418 -18.246 -130.344 62.368 -130.344 L 227.161 -130.344 C 220.051 -124.981 214.857 -119.005 211.107 -113.442 " fill="#0779be"/>
<path transform="matrix(1,0,0,-1,532.6421,655.4398)" d="M 0 0 C -11.675 0 -22.386 4.081 -30.83 10.867 L -30.83 -192.633 L 30.83 -192.633 L 30.83 10.867 C 22.387 4.081 11.676 0 0 0 " fill="#0779be"/>
<path transform="matrix(1,0,0,-1,573.185,606.1599)" d="M 0 0 C 0 -22.391 -18.152 -40.543 -40.543 -40.543 C -62.934 -40.543 -81.086 -22.391 -81.086 0 C -81.086 22.391 -62.934 40.543 -40.543 40.543 C -18.152 40.543 0 22.391 0 0 " fill="#0779be"/>
<path transform="matrix(1,0,0,-1,0,1500)" d="M 391.48 596.55 L 397.59403 596.55 L 397.59403 560.006 L 391.48 560.006 Z M 391.48 610.187 L 397.59403 610.187 L 397.59403 603.721 L 391.48 603.721 Z " fill="#0779be"/>
<path transform="matrix(1,0,0,-1,408.5676,939.9937)" d="M 0 0 L 0 36.544 L 6.114 36.544 L 6.114 30.501 C 9.136 34.93 13.282 37.388 18.624 37.388 C 26.495 37.388 31.414 32.258 31.414 23.542 L 31.414 0 L 25.299 0 L 25.299 22.137 C 25.299 26.495 23.966 31.625 17.147 31.625 C 10.893 31.625 6.114 27.059 6.114 20.24 L 6.114 0 Z " fill="#0779be"/>
<path transform="matrix(1,0,0,-1,463.4748,940.8378)" d="M 0 0 C -7.167 0 -12.861 2.813 -16.163 7.803 L -11.665 11.176 C -8.856 7.31 -4.638 5.27 .352 5.27 C 5.273 5.27 8.856 7.239 8.856 11.176 C 8.856 14.898 5.554 15.602 -1.193 16.867 C -8.363 18.203 -14.266 20.312 -14.266 27.479 C -14.266 34.93 -7.66 38.232 -.561 38.232 C 6.326 38.232 11.385 35.139 14.269 32.117 L 10.192 28.252 C 7.591 31.276 3.797 32.961 -.632 32.961 C -4.498 32.961 -8.363 31.557 -8.363 28.043 C -8.363 24.318 -4.215 23.474 .704 22.561 C 8.014 21.156 14.97 19.468 14.97 11.668 C 14.97 4.71 9.419 0 0 0 " fill="#0779be"/>
<path transform="matrix(1,0,0,-1,508.1931,938.3771)" d="M 0 0 C -2.18 -1.688 -4.85 -2.461 -7.943 -2.461 C -12.229 -2.461 -15.534 -.984 -17.499 2.177 C -18.624 3.934 -19.047 5.974 -19.047 9.416 L -19.047 29.868 L -25.371 29.868 L -25.371 34.927 L -19.047 34.927 L -19.047 45.19 L -12.933 45.19 L -12.933 34.927 L -1.124 34.927 L -1.124 29.868 L -12.933 29.868 L -12.933 9.416 C -12.933 5.202 -11.036 3.093 -7.31 3.093 C -5.13 3.093 -3.585 3.866 -2.601 4.638 Z " fill="#0779be"/>
<path transform="matrix(1,0,0,-1,0,1500)" d="M 514.674 596.55 L 520.788 596.55 L 520.788 560.006 L 514.674 560.006 Z M 514.674 610.187 L 520.788 610.187 L 520.788 603.721 L 514.674 603.721 Z " fill="#0779be"/>
<path transform="matrix(1,0,0,-1,552.9857,938.3771)" d="M 0 0 C -2.18 -1.688 -4.85 -2.461 -7.943 -2.461 C -12.229 -2.461 -15.534 -.984 -17.499 2.177 C -18.624 3.934 -19.047 5.974 -19.047 9.416 L -19.047 29.868 L -25.371 29.868 L -25.371 34.927 L -19.047 34.927 L -19.047 45.19 L -12.933 45.19 L -12.933 34.927 L -1.124 34.927 L -1.124 29.868 L -12.933 29.868 L -12.933 9.416 C -12.933 5.202 -11.036 3.093 -7.31 3.093 C -5.13 3.093 -3.585 3.866 -2.601 4.638 Z " fill="#0779be"/>
<path transform="matrix(1,0,0,-1,590.4594,903.45)" d="M 0 0 L 0 -36.544 L -6.114 -36.544 L -6.114 -30.569 C -9.207 -34.927 -13.282 -37.388 -18.624 -37.388 C -26.495 -37.388 -31.416 -32.258 -31.416 -23.611 L -31.416 0 L -25.302 0 L -25.302 -22.206 C -25.302 -26.564 -24.034 -31.694 -17.219 -31.694 C -10.893 -31.694 -6.114 -27.127 -6.114 -20.309 L -6.114 0 Z " fill="#0779be"/>
<path transform="matrix(1,0,0,-1,622.6712,938.3771)" d="M 0 0 C -2.18 -1.688 -4.85 -2.461 -7.943 -2.461 C -12.229 -2.461 -15.534 -.984 -17.499 2.177 C -18.624 3.934 -19.047 5.974 -19.047 9.416 L -19.047 29.868 L -25.371 29.868 L -25.371 34.927 L -19.047 34.927 L -19.047 45.19 L -12.933 45.19 L -12.933 34.927 L -1.125 34.927 L -1.125 29.868 L -12.933 29.868 L -12.933 9.416 C -12.933 5.202 -11.036 3.093 -7.31 3.093 C -5.13 3.093 -3.585 3.866 -2.601 4.638 Z " fill="#0779be"/>
<path transform="matrix(1,0,0,-1,655.7843,918.4886)" d="M 0 0 C -.632 7.027 -5.411 10.612 -11.173 10.612 C -17.571 10.612 -21.857 6.186 -22.349 0 Z M 6.186 -4.71 L -22.489 -4.71 C -22.137 -12.298 -17.359 -16.727 -10.189 -16.727 C -5.834 -16.727 -2.249 -15.039 .632 -11.949 L 4.71 -15.954 C .984 -19.96 -3.866 -22.349 -10.332 -22.349 C -22.209 -22.349 -29.024 -14.197 -29.024 -3.373 C -29.024 7.379 -22.278 15.883 -11.104 15.883 C -.352 15.883 6.326 7.871 6.326 -2.318 C 6.326 -3.442 6.255 -4.217 6.186 -4.71 " fill="#0779be"/>
<path transform="matrix(1,0,0,-1,704.9432,908.1567)" d="M 0 0 C -7.31 0 -11.525 -5.903 -11.525 -13.634 C -11.525 -21.225 -7.31 -27.199 0 -27.199 C 7.308 -27.199 11.453 -21.225 11.453 -13.634 C 11.453 -5.903 7.308 0 0 0 M 0 -32.681 C -11.104 -32.681 -17.991 -24.598 -17.991 -13.634 C -17.991 -2.529 -11.104 5.551 0 5.551 C 11.033 5.551 17.991 -2.529 17.991 -13.634 C 17.991 -24.598 11.033 -32.681 0 -32.681 " fill="#0779be"/>
<path transform="matrix(1,0,0,-1,749.7359,894.8749)" d="M 0 0 C -1.124 .28 -2.601 .632 -4.429 .632 C -7.803 .632 -9.559 -.632 -9.559 -4.146 L -9.559 -8.575 L -.984 -8.575 L -.984 -13.634 L -9.559 -13.634 L -9.559 -45.119 L -15.674 -45.119 L -15.674 -13.634 L -21.929 -13.634 L -21.929 -8.575 L -15.674 -8.575 L -15.674 -4.286 C -15.674 2.529 -11.456 5.834 -4.781 5.834 C -2.741 5.834 -.492 5.554 .841 5.062 Z " fill="#0779be"/>
<path transform="matrix(1,0,0,-1,796.3512,938.3771)" d="M 0 0 C -2.18 -1.688 -4.85 -2.461 -7.943 -2.461 C -12.229 -2.461 -15.534 -.984 -17.499 2.177 C -18.624 3.934 -19.047 5.974 -19.047 9.416 L -19.047 29.868 L -25.371 29.868 L -25.371 34.927 L -19.047 34.927 L -19.047 45.19 L -12.933 45.19 L -12.933 34.927 L -1.124 34.927 L -1.124 29.868 L -12.933 29.868 L -12.933 9.416 C -12.933 5.202 -11.036 3.093 -7.31 3.093 C -5.13 3.093 -3.585 3.866 -2.601 4.638 Z " fill="#0779be"/>
<path transform="matrix(1,0,0,-1,829.47,918.4886)" d="M 0 0 C -.635 7.027 -5.413 10.612 -11.176 10.612 C -17.574 10.612 -21.86 6.186 -22.352 0 Z M 6.18 -4.71 L -22.492 -4.71 C -22.14 -12.298 -17.362 -16.727 -10.192 -16.727 C -5.837 -16.727 -2.249 -15.039 .629 -11.949 L 4.704 -15.954 C .979 -19.96 -3.868 -22.349 -10.335 -22.349 C -22.212 -22.349 -29.027 -14.197 -29.027 -3.373 C -29.027 7.379 -22.28 15.883 -11.107 15.883 C -.355 15.883 6.323 7.871 6.323 -2.318 C 6.323 -3.442 6.255 -4.217 6.18 -4.71 " fill="#0779be"/>
<path transform="matrix(1,0,0,-1,874.1168,933.1754)" d="M 0 0 C -3.09 -4.429 -8.011 -7.662 -14.758 -7.662 C -25.579 -7.662 -32.469 .561 -32.469 11.454 C -32.469 22.346 -25.579 30.569 -14.758 30.569 C -8.292 30.569 -3.371 27.548 -.212 22.979 L -4.778 19.325 C -6.958 22.838 -10.186 25.019 -14.547 25.019 C -21.642 25.019 -26.003 19.185 -26.003 11.454 C -26.003 3.654 -21.574 -2.109 -14.615 -2.109 C -9.98 -2.109 -6.815 .209 -4.71 3.373 Z " fill="#0779be"/>
<path transform="matrix(1,0,0,-1,881.7277,939.9937)" d="M 0 0 L 0 50.18 L 6.112 50.18 L 6.112 30.501 C 9.139 34.93 13.282 37.388 18.621 37.388 C 26.495 37.388 31.416 32.258 31.416 23.542 L 31.416 0 L 25.299 0 L 25.299 22.137 C 25.299 26.495 23.966 31.625 17.15 31.625 C 10.896 31.625 6.112 27.059 6.112 20.24 L 6.112 0 Z " fill="#0779be"/>
<path transform="matrix(1,0,0,-1,923.7078,939.9937)" d="M 0 0 L 0 36.544 L 6.112 36.544 L 6.112 30.501 C 9.139 34.93 13.282 37.388 18.621 37.388 C 26.495 37.388 31.416 32.258 31.416 23.542 L 31.416 0 L 25.299 0 L 25.299 22.137 C 25.299 26.495 23.966 31.625 17.15 31.625 C 10.896 31.625 6.112 27.059 6.112 20.24 L 6.112 0 Z " fill="#0779be"/>
<path transform="matrix(1,0,0,-1,981.2873,908.1567)" d="M 0 0 C -7.308 0 -11.525 -5.903 -11.525 -13.634 C -11.525 -21.225 -7.308 -27.199 0 -27.199 C 7.313 -27.199 11.456 -21.225 11.456 -13.634 C 11.456 -5.903 7.313 0 0 0 M 0 -32.681 C -11.102 -32.681 -17.991 -24.598 -17.991 -13.634 C -17.991 -2.529 -11.102 5.551 0 5.551 C 11.039 5.551 17.991 -2.529 17.991 -13.634 C 17.991 -24.598 11.039 -32.681 0 -32.681 " fill="#0779be"/>
<path transform="matrix(1,0,0,-1,0,1500)" d="M 1008.086 610.187 L 1014.198 610.187 L 1014.198 560.007 L 1008.086 560.007 Z " fill="#0779be"/>
<path transform="matrix(1,0,0,-1,1040.9841,908.1567)" d="M 0 0 C -7.308 0 -11.525 -5.903 -11.525 -13.634 C -11.525 -21.225 -7.308 -27.199 0 -27.199 C 7.313 -27.199 11.456 -21.225 11.456 -13.634 C 11.456 -5.903 7.313 0 0 0 M 0 -32.681 C -11.102 -32.681 -17.991 -24.598 -17.991 -13.634 C -17.991 -2.529 -11.102 5.551 0 5.551 C 11.039 5.551 17.991 -2.529 17.991 -13.634 C 17.991 -24.598 11.039 -32.681 0 -32.681 " fill="#0779be"/>
<path transform="matrix(1,0,0,-1,1083.319,908.2283)" d="M 0 0 C -7.8 0 -11.525 -5.551 -11.525 -12.157 C -11.525 -18.904 -7.731 -24.527 0 -24.527 C 7.662 -24.527 11.949 -18.976 11.949 -12.157 C 11.949 -5.411 7.8 0 0 0 M 17.992 -25.863 C 17.992 -31.414 17.007 -35.703 14.054 -39.004 C 10.472 -43.15 4.847 -44.698 -1.333 -44.698 C -7.382 -44.698 -12.372 -43.222 -16.584 -40.341 L -13.494 -35.351 C -10.26 -37.668 -6.117 -39.145 -1.265 -39.145 C 6.186 -39.145 11.874 -35.703 11.874 -27.127 L 11.874 -23.19 C 8.927 -27.828 3.725 -30.009 -1.476 -30.009 C -11.245 -30.009 -17.991 -22.489 -17.991 -12.298 C -17.991 -1.969 -10.964 5.622 -1.196 5.622 C 4.074 5.622 8.927 3.445 11.874 -1.265 L 11.874 4.778 L 17.992 4.778 Z " fill="#0779be"/>
<path transform="matrix(1,0,0,-1,1128.744,941.6819)" d="M 0 0 C -2.81 -7.379 -5.762 -11.245 -12.584 -11.245 C -15.462 -11.245 -17.923 -10.541 -20.029 -8.996 L -17.362 -4.498 C -16.097 -5.339 -14.621 -5.903 -13.001 -5.903 C -9.631 -5.903 -7.943 -3.442 -6.535 -.349 L -5.551 1.828 L -21.013 38.232 L -13.986 38.232 L -2.323 9.84 L 8.011 38.232 L 14.615 38.232 Z " fill="#0779be"/>
<path transform="matrix(1,0,0,-1,1213.2238,562.1843)" d="M 0 0 L -5.694 0 L -5.694 -7.934 L 0 -7.934 C 2.641 -7.934 3.997 -6.309 3.997 -4.001 C 3.997 -1.634 2.573 0 0 0 M 4.338 -21.622 L -.206 -12.34 L -5.694 -12.34 L -5.694 -21.622 L -11.388 -21.622 L -11.388 4.473 L .135 4.473 C 6.368 4.473 9.893 1.078 9.893 -3.799 C 9.893 -7.463 7.724 -10.032 4.948 -11.186 L 10.436 -21.622 Z M -1.221 11.042 C -12.066 11.042 -21.011 2.299 -21.011 -8.676 C -21.011 -19.592 -12.133 -28.402 -1.221 -28.402 C 9.623 -28.402 18.501 -19.592 18.501 -8.676 C 18.501 2.299 9.623 11.042 -1.221 11.042 M -1.221 -32.471 C -14.37 -32.471 -25.079 -21.757 -25.079 -8.676 C -25.079 4.473 -14.37 15.111 -1.221 15.111 C 11.859 15.111 22.569 4.473 22.569 -8.676 C 22.569 -21.757 11.859 -32.471 -1.221 -32.471 " fill="#0779be"/>
</g>
</g>
</g>
</svg>
